<svg width="88" height="89" viewBox="0 0 88 89" fill="none" xmlns="http://www.w3.org/2000/svg">
<path d="M53.4424 0.73053L53.8535 2.78326L57.5479 3.19342L58.3691 3.60455L62.4746 4.01471L62.8857 4.42584H64.1172L65.3486 6.47858L65.7588 6.88873V9.76276L64.1172 11.4044V10.584L61.2432 11.4044L60.833 13.8682L63.2959 13.4571L64.1172 12.2256L65.3486 13.4571L65.7588 16.3311L64.9385 17.5626H60.833V18.3839H60.0117L62.4746 21.2579L64.5273 22.4893L64.1172 23.3106L62.0645 22.9005L63.2959 24.9532L66.1699 27.0059L65.3486 27.4161L66.1699 29.0587V31.1114L72.7383 28.2374L77.2549 25.3633L81.3604 22.9005L83.8232 20.8477H86.2861L87.1074 21.668L86.6973 22.9005H85.4658L87.1074 23.7208L86.6973 25.3633H85.4658L86.2861 25.7735V27.4161L83.002 29.0587L79.3076 29.4688L74.3809 34.8057L72.7383 37.2696L73.9697 37.6797L72.7383 38.9112L66.1699 39.3223L64.1172 40.9639H62.8857L63.2959 36.4483V30.2901L62.8857 37.6797L61.6533 41.7852L60.833 43.0167L62.0645 43.4278H65.7588L69.4541 41.7852L75.2021 40.9639L77.665 39.7325H80.5391L81.7705 40.5538V42.6065H80.9492L80.5391 41.7852H78.8965L80.5391 42.1954V44.2481L78.0752 43.838L79.3076 44.6592V45.8907L76.8438 46.712H74.3809L72.3281 46.3008L68.6328 48.3536L64.5273 51.6387L64.1172 52.459L61.6533 52.0489L60.833 51.2276H59.6006L58.3691 50.4063L49.3369 48.7647L47.6953 48.3536L53.4424 49.9962L52.6221 51.6387L49.3369 54.9229L45.2314 56.9756L39.4844 58.2071L34.5576 59.4385L32.0938 61.0811L29.6309 65.1866L23.4727 71.3448L19.7773 73.3975L18.5459 72.9864L19.7773 71.7549L14.8516 74.2188L12.7988 76.2715L10.7461 78.7344L10.335 79.5557V82.4297L12.3877 83.6612L16.4932 84.4825L18.1357 86.1241L17.7246 87.7667L15.2617 88.588H11.1562L10.335 88.1768L6.64062 87.7667L4.17676 84.4825V80.377L5.4082 77.503V75.0391L4.58789 76.2715V72.5762L9.51367 68.0606L10.7461 65.1866L11.1562 58.6172L12.7988 55.3331L9.10352 56.5645H4.99805L2.53516 54.9229L0.892578 52.459V48.3536L2.53516 45.0694L4.99805 42.1954L10.335 38.9112L17.3145 35.2169L18.957 34.3956L19.7773 32.753L20.5986 31.1114V27.4161L18.5459 24.9532L16.9043 24.1319L14.4404 23.7208L13.6191 25.7735L11.9775 27.4161L9.9248 28.6475H9.10352L8.69336 29.879L7.05078 30.2901L6.22949 30.7003V27.0059L7.87207 24.5421L10.335 22.4893L11.1562 22.0792H16.9043L19.7773 23.3106L21.8301 24.9532L23.0625 27.0059V30.7003L21.4199 34.8057L18.5459 37.6797L8.69336 43.4278L6.22949 46.3008L5.4082 47.9434V50.4063L6.22949 51.6387L9.9248 51.2276L13.209 49.1749L16.4932 45.8907L22.2412 43.0167L26.7568 41.3751L29.2207 39.7325L33.3262 33.5743L34.9678 30.2901L35.3789 29.0587V26.1846L33.3262 28.2374L32.5049 27.8262L33.3262 25.7735V22.0792L32.915 17.5626L30.4521 19.6153V18.3839L33.3262 10.9942L34.9678 8.53131H32.5049L34.5576 6.88873L38.6631 3.19342L43.1787 1.14069H49.748L51.8008 1.96198L51.3896 0.320374L53.4424 0.73053ZM42.7676 62.7237L43.1787 64.3653V68.4717L41.9473 69.7032L41.5361 68.4717L40.7148 68.0606V68.8819H39.8945L39.0732 70.5245L37.0205 73.3975V75.8614L39.4834 79.5557L43.1787 82.0196L45.2314 82.8409L46.873 84.0723L49.3369 85.3038L49.7471 87.3565L47.6943 88.588H44L40.7148 87.3565L38.252 85.7139L36.1992 83.251L29.2197 79.5557V80.7881H28.3984L27.9883 79.9669V77.503L30.041 74.2188L34.9678 69.2921L32.915 70.9346L28.3984 75.0401H27.9883L27.5781 70.9346L26.7568 69.2921L30.041 66.0079L32.915 61.0811L36.1992 59.0284L39.0732 58.6182H41.9473L42.7676 62.7237Z" fill="#272526"/>
</svg>
