<svg width="78" height="80" viewBox="0 0 78 80" fill="none" xmlns="http://www.w3.org/2000/svg">
<g clip-path="url(#clip0_270_1091)">
<path d="M49.4454 88.2911C49.5024 88.114 49.57 88.015 49.5596 87.9212C49.5181 87.4573 49.4609 86.9936 49.409 86.5351C49.409 86.4516 49.409 86.3631 49.409 86.285C49.4073 86.276 49.4057 86.2671 49.4041 86.2582C49.2499 85.4126 49.0956 84.567 48.9261 83.7264C48.8844 83.5181 48.7702 83.3253 48.7338 83.1168C48.6819 82.8197 48.6819 82.5124 48.6248 82.2206C48.6248 82.1423 48.4483 82.0954 48.3599 82.033C48.3029 82.1268 48.1835 82.2258 48.199 82.3091C48.2509 82.6531 48.3444 82.9866 48.4275 83.3253C48.5884 83.9506 48.7805 84.5654 48.9156 85.196C49.0662 85.9253 49.1701 86.6653 49.3 87.3949C49.326 87.6553 49.3727 87.9107 49.4454 88.2911ZM14.8062 26.0955C14.4167 26.2621 14.1986 26.4654 14.2194 26.8458C14.2194 26.9188 14.1467 26.9917 14.1051 27.0647C13.8457 27.4751 13.7373 27.9635 13.7987 28.4455C14.1207 27.6691 14.64 26.9865 14.8062 26.0955ZM5.14672 32.1607V32.2545C5.25578 32.2181 5.44793 32.1869 5.45313 32.1452C5.45313 31.8742 5.60892 31.9263 5.7855 31.9732C5.82233 31.9833 5.86089 31.9852 5.89853 31.9789C5.93618 31.9727 5.97202 31.9582 6.00361 31.9367C6.4442 31.5862 6.75948 31.1015 6.90204 30.5559L5.14672 32.1607ZM41.7125 30.0765C41.8379 30.1628 41.9864 30.2088 42.1384 30.2088C42.2904 30.2088 42.4389 30.1628 42.5643 30.0765C42.7069 29.9815 42.816 29.8436 42.8756 29.6826C42.9354 29.5216 42.9427 29.3458 42.8965 29.1803C42.6785 29.2689 42.4656 29.347 42.2631 29.4355C42.2067 29.4694 42.1574 29.5136 42.1177 29.5658L41.7125 30.0765ZM69.0084 26.1528L68.889 26.3195L69.2213 26.6946C69.2732 26.5696 69.3979 26.4185 69.3616 26.3247C69.3252 26.2309 69.1331 26.1945 69.0084 26.1371V26.1528ZM38.5967 17.5498L38.6901 17.4769L38.3681 16.8151L38.0617 16.9766L38.5967 17.5498Z" fill="#202020"/>
<path fill-rule="evenodd" clip-rule="evenodd" d="M23.5933 0.401228C23.4167 0.463757 23.1414 0.328277 23.2816 0H23.1154L22.4975 0.317856L22.0923 0.562762C21.9367 0.562762 21.7081 0.343911 21.4172 0.562762C21.3502 0.596254 21.2765 0.613686 21.2017 0.613686C21.1269 0.613686 21.0532 0.596254 20.9862 0.562762C20.7682 0.427283 20.711 0.489811 20.6746 0.708663C20.64 0.825406 20.5912 0.937417 20.5292 1.04215V0.406439L19.8645 0.489811C19.7398 0.510653 19.5997 0.385597 19.4593 0.385597C18.7791 0.385597 18.0987 0.411649 17.4236 0.448125C17.2003 0.458546 16.9718 0.672188 16.7693 0.390807C16.7391 0.373922 16.7051 0.36506 16.6706 0.36506C16.6361 0.36506 16.6021 0.373922 16.5719 0.390807C16.3434 0.541919 16.1305 0.729505 15.9072 0.911882C15.8634 0.839265 15.8026 0.778473 15.7301 0.734791C15.6576 0.691109 15.5756 0.66586 15.4911 0.661238C15.4066 0.656615 15.3223 0.672761 15.2455 0.708269C15.1687 0.743777 15.1017 0.797576 15.0503 0.864985C14.9871 0.924034 14.913 0.970064 14.8322 1.00046C14.5342 1.15663 14.2253 1.29074 13.9078 1.40169C13.4871 1.52675 13.0457 1.58928 12.6147 1.68308C12.4743 1.70002 12.3404 1.75198 12.2252 1.83419C12.0382 1.9384 11.846 2.04261 11.6487 2.13641C11.5772 2.17785 11.4973 2.20278 11.415 2.20937C11.1549 2.22771 10.9035 2.31126 10.684 2.45238C10.4644 2.59349 10.2836 2.78764 10.1582 3.01703L10.1271 2.73044H9.65968C9.54084 2.73809 9.42368 2.76266 9.31173 2.80338C8.92536 3.02467 8.5064 3.18295 8.07054 3.27236C7.55161 3.37187 7.04492 3.52735 6.55929 3.73612C6.35723 3.82766 6.16122 3.93208 5.97246 4.04875L3.80686 4.92937C3.89514 5.05443 3.95746 5.05443 4.01459 5.05443C5.35964 4.91375 6.69951 4.77826 8.03937 4.62195C8.50157 4.56463 8.95858 4.42914 9.42598 4.3614C9.71681 4.30408 10.0284 4.37183 10.3088 4.30408C10.6983 4.2103 11.1138 4.28324 11.4825 3.98622C11.6591 3.84033 12.0382 3.93933 12.3238 3.93933C12.5056 3.94975 12.7549 4.11649 12.8432 4.04875C13.0391 3.9182 13.2626 3.83517 13.4961 3.80623C13.7295 3.77729 13.9665 3.80323 14.1882 3.88201C14.1644 4.11067 14.1644 4.34118 14.1882 4.56984C14.2576 4.7142 14.3609 4.8394 14.4894 4.93458C14.5673 5.01275 14.692 5.04922 14.7647 5.1326C14.9412 5.33061 15.0763 5.53903 15.4086 5.36187C15.8864 5.09613 16.4317 4.90332 16.9251 4.63757C17.1795 4.49168 17.3821 4.15819 17.6366 4.11649C17.9929 4.0403 18.3409 3.92859 18.6752 3.78301C18.6855 3.7778 18.7115 3.84033 18.7427 3.84033C18.3376 4.15819 18.7427 4.52293 18.6855 4.77305L19.1011 5.21076L19.8592 5.50778C20.0489 5.60139 20.2473 5.67642 20.4512 5.73184C20.7631 5.77549 21.0795 5.77549 21.3912 5.73184C21.5887 5.67452 21.7289 5.37229 21.9884 5.67452C22.1495 5.8569 22.4975 5.95589 22.5546 6.1487C22.752 6.86779 23.318 6.972 23.8788 6.972C24.0552 6.9699 24.2287 7.01767 24.3793 7.10982C24.5299 7.20197 24.6516 7.33478 24.7306 7.49307C24.8568 7.7737 25.0581 8.01378 25.3119 8.18669C25.5659 8.3596 25.8626 8.45858 26.1691 8.47268C26.4755 8.4779 26.8235 8.5196 27.0988 8.52481C27.374 8.53 27.6284 8.48832 27.8933 8.48832C28.023 8.48051 28.1531 8.48051 28.2828 8.48832L29.6174 8.60296L29.6953 9.68159L32.2921 11.3073C32.0241 11.3567 31.7496 11.3567 31.4818 11.3073C31.3394 11.281 31.1924 11.3006 31.0617 11.3634C30.9311 11.4261 30.8237 11.5287 30.7547 11.6565C30.6562 11.7739 30.6022 11.9224 30.6022 12.0759C30.6022 12.2294 30.6562 12.378 30.7547 12.4954C30.9365 12.7038 31.1286 12.907 31.3209 13.1207H31.0924C30.3808 13.1259 30.0328 13.6678 30.3808 14.2879C30.4379 14.3921 30.651 14.413 30.6977 14.5172C30.9625 15.1268 31.6064 15.0851 32.0738 15.2519C32.8061 15.5333 33.6059 15.575 34.2602 16.0543C34.6289 16.3305 35.06 16.4764 35.2988 16.9662C35.4444 17.258 35.9325 17.3831 36.2752 17.5654C36.3116 17.5864 36.4103 17.4612 36.4413 17.4612C36.5233 17.5909 36.623 17.7084 36.7373 17.8104C37.0853 18.0605 37.4541 18.2688 37.8071 18.5138C38.2508 18.895 38.733 19.2287 39.2457 19.5092C39.5659 19.6436 39.825 19.8923 39.9728 20.2073C40.1961 20.5617 40.2168 21.114 40.7933 21.1869C40.8245 21.1869 40.7986 21.312 40.8245 21.3694C40.915 21.5378 40.9947 21.7119 41.0634 21.8904C41.063 21.983 41.032 22.0728 40.9751 22.1456C40.7571 22.0987 40.4661 22.0987 40.3519 21.9581C40.1464 21.6647 39.9723 21.3504 39.8326 21.0202L39.4587 21.088C39.4432 20.6972 38.9809 19.8946 38.7213 19.9417C38.3415 19.9626 37.9686 19.8336 37.6825 19.582C37.3555 19.3892 36.836 19.4623 36.836 18.8317L36.6024 19.2642C36.5639 19.1616 36.517 19.0622 36.4622 18.9672C36.2544 18.7432 36.2959 18.3262 35.9013 18.2586C35.6677 18.2169 35.4391 18.1595 35.2054 18.1229L34.3486 18.0084L34.4005 17.7166L32.5361 17.1747C32.4477 17.034 32.3803 16.7786 32.2192 16.7005C31.8585 16.5196 31.4738 16.3915 31.0767 16.3201C30.6429 16.2644 30.205 16.2452 29.768 16.2628C28.9787 16.268 28.1996 16.2576 27.4207 16.3149C26.7902 16.4156 26.1452 16.3693 25.5356 16.1794C24.5747 15.7678 23.5413 15.971 22.5909 15.6271C22.5546 15.6114 22.4922 15.6687 22.4403 15.6687C22.2377 15.6948 21.9989 15.7886 21.8378 15.7209C21.3912 15.5228 20.9862 15.7678 20.5656 15.7678C20.3378 15.787 20.1218 15.8772 19.9476 16.0257C19.7735 16.1743 19.6499 16.3738 19.5944 16.5963C19.4646 17.2841 18.9505 17.3049 18.5194 17.456C17.9586 17.6592 17.3613 17.7687 16.7797 17.9198C16.5249 17.9748 16.2749 18.0497 16.0318 18.1439C15.6216 18.321 15.2217 18.519 14.8322 18.7327C14.7166 18.8214 14.6166 18.9288 14.5362 19.0505C14.4842 19.0298 14.318 18.9203 14.2713 18.962C13.7883 19.3632 13.1807 19.6549 12.9211 20.2751C12.7778 20.5682 12.5679 20.8234 12.3082 21.0202C12.0729 21.2496 11.8639 21.5048 11.6851 21.781C11.6227 21.859 11.6799 22.0311 11.6227 22.0728C11.3527 22.276 11.0619 22.4427 10.7814 22.625C10.6412 22.7188 10.5114 22.8231 10.366 22.9325C10.3556 22.9273 10.2569 22.8544 10.2154 22.8544C10.0143 22.9474 9.82149 23.0572 9.6389 23.1827C9.2546 23.4641 8.88587 23.7245 8.49638 23.9851C8.18999 24.1936 7.82126 24.3655 7.77971 24.7823C7.79176 24.996 7.73589 25.208 7.62016 25.3879C7.50444 25.5676 7.33482 25.7059 7.13574 25.7829C7.05266 25.8193 7.00591 25.9548 6.94878 26.0538C6.78779 26.3561 6.59046 26.653 6.42947 26.9709C6.3642 27.162 6.31044 27.3569 6.26848 27.5544C6.21036 27.7542 6.11905 27.9428 5.99842 28.1121C5.76472 28.3674 5.48428 28.5498 5.24539 28.8885C5.00651 29.2272 4.86628 29.644 4.65856 29.9827C4.45082 30.3214 3.97305 30.3267 3.7705 30.7435C3.62509 31.0405 3.22002 31.2177 3.03825 31.5407C2.81224 31.9261 2.63763 32.3394 2.51892 32.7705C2.42752 33.1617 2.36159 33.5586 2.32158 33.9585C2.94478 34.1461 3.37581 33.7917 3.79647 33.5261C4.2003 33.2384 4.58538 32.925 4.94938 32.588H5.01688L4.2379 33.6824C3.71857 33.7032 3.41737 33.9741 3.19924 34.6412L2.89285 34.5056C2.78407 34.6503 2.66427 34.7861 2.5345 34.9121C2.18656 35.2194 1.94247 35.6155 1.46988 35.7407C1.41795 35.7562 1.38679 35.8761 1.35563 35.9542C1.21022 36.3189 1.04923 36.6524 0.919398 36.9963C0.742398 37.3755 0.604912 37.7719 0.50913 38.1793C0.457197 38.6273 0.623382 38.7159 1.09597 38.7837C1.66334 38.8124 2.2262 38.669 2.71108 38.3721C2.97073 38.2522 3.28234 38.1219 3.16289 37.804C3.35702 37.7206 3.54304 37.6195 3.71857 37.5019C3.9315 37.335 4.05613 37.3819 4.09769 37.6269C4.14334 37.9526 4.39711 38.0199 4.64604 38.0859L4.66375 38.0906C4.78599 38.1298 4.91837 38.1223 5.03536 38.0693C5.15235 38.0165 5.24568 37.922 5.29734 37.804C5.43755 37.554 5.61931 37.3143 5.81665 37.0329C5.9309 37.3298 6.15421 37.554 6.02959 37.8509C6.014 37.8822 6.06593 37.9917 6.10747 37.9917C6.26328 38.0803 6.46581 38.221 6.6268 38.221C6.83033 38.1955 7.0218 38.1101 7.17706 37.9757C7.33233 37.8413 7.44445 37.6636 7.49928 37.4654C7.67318 36.9175 7.9441 36.4055 8.29904 35.9542C8.55718 35.6485 8.76256 35.3015 8.90665 34.9278C9.01571 34.6307 9.11438 34.3337 9.22863 34.0107L9.44676 33.9117C9.80508 34.2556 9.59216 34.9278 10.2673 35.1154C10.662 35.2247 10.9372 35.157 11.0826 34.8443C11.228 34.5317 11.3423 34.2087 11.4929 33.9012C11.5708 33.7448 11.7474 33.6251 11.7785 33.4635C11.8409 33.1091 11.8201 32.7601 11.8772 32.4214C11.9084 32.2024 11.8512 31.9003 12.2304 31.8639C12.2823 31.8586 12.3238 31.6554 12.3654 31.5407C12.3905 31.4084 12.4342 31.2804 12.4952 31.1603C12.7984 30.8453 13.0164 30.4579 13.1288 30.0349C13.2185 29.7983 13.3409 29.5755 13.4923 29.3731C13.5825 29.7101 13.6899 30.0424 13.8143 30.3683C13.8504 30.4515 13.9074 30.5237 13.9798 30.5779C14.0522 30.6321 14.1375 30.6664 14.2272 30.6776C14.3169 30.6886 14.4079 30.676 14.4912 30.641C14.5745 30.6059 14.6473 30.5496 14.7023 30.4776C14.9412 30.1598 15.1386 29.8159 15.3619 29.4669C15.6112 29.7169 15.3515 30.3058 15.9176 30.3058C16.1565 29.9775 16.385 29.6076 16.6498 29.2636C17.0497 28.7478 17.4704 28.2684 17.8806 27.7472C17.9165 27.6961 17.9445 27.64 17.9636 27.5805C18.0728 27.2835 18.1871 26.9917 18.2961 26.6946L18.4519 26.7415L18.3168 27.492C18.4287 27.3897 18.5569 27.3069 18.696 27.2471C18.9343 27.2061 19.1605 27.1125 19.3582 26.9727C19.5557 26.833 19.72 26.6509 19.8385 26.4394C19.8986 26.3284 19.9935 26.2405 20.1085 26.1893C20.8252 25.9131 21.1471 25.2462 21.6665 24.7823C22.3261 24.1779 22.9596 23.5474 23.6036 22.9273L23.7075 22.9378C23.6417 23.0361 23.5828 23.1388 23.5309 23.2453C23.4686 23.3962 23.4167 23.5526 23.3647 23.7038C23.4875 23.8122 23.5697 23.9591 23.5985 24.1206C23.6712 24.4228 23.8166 24.4645 24.1178 24.3603C24.8409 24.0859 25.5818 23.8613 26.3352 23.6881C26.8573 23.646 27.359 23.4663 27.7894 23.167C27.8843 23.1076 27.9943 23.0767 28.1062 23.0784H29.0461C29.1284 23.0757 29.2079 23.0485 29.2747 23.0004C29.4126 22.8987 29.5721 22.8307 29.7406 22.8018C29.9092 22.7729 30.0821 22.7837 30.2458 22.8335C30.3354 22.8464 30.4263 22.8464 30.5159 22.8335C30.7517 22.7441 31.004 22.7061 31.2557 22.7223C31.5072 22.7383 31.7527 22.8084 31.9751 22.9273C32.1979 23.0272 32.4376 23.0837 32.6815 23.0941C32.8373 23.1253 33.045 23.0732 33.1541 23.1565C33.6007 23.5005 34.12 23.365 34.6393 23.3962C34.9862 23.3975 35.333 23.38 35.678 23.3441L36.5192 23.3077V23.2139L37.641 23.8287C37.4428 23.9835 37.2073 24.0833 36.9585 24.1181C36.7098 24.1528 36.4561 24.1214 36.2232 24.0268C35.805 23.933 35.3694 23.9527 34.9613 24.0841C34.8471 24.0998 34.7485 24.2457 34.6393 24.3134C34.4326 24.4593 34.2157 24.5898 33.9901 24.7042C33.7928 24.798 33.5747 24.8344 33.3722 24.9075C33.1877 25.0033 32.9948 25.0818 32.7957 25.1419C32.2401 25.2253 31.6739 25.2669 31.0611 25.3347C30.947 25.1003 30.7444 25.0846 30.4951 25.3347C30.4277 25.4024 30.3393 25.3712 30.2043 25.4442C30.0692 25.5171 29.9498 25.6161 29.8252 25.6994L29.6641 25.8246C29.4741 25.9285 29.2994 26.0582 29.1448 26.2102C28.8852 26.5175 28.6879 26.8824 28.4386 27.2002C28.2756 27.4235 28.0795 27.6203 27.8569 27.7838C27.1767 28.2684 26.2365 28.3934 25.9458 29.347C25.925 29.4148 25.8264 29.4512 25.7692 29.5086C25.5511 29.7169 25.1617 29.9411 25.1617 30.1339C25.1578 30.3323 25.1123 30.5275 25.0281 30.7071C24.9441 30.8866 24.8231 31.0465 24.6734 31.176C24.4361 31.5536 24.2608 31.9671 24.1541 32.4004C24.0687 32.7254 23.9611 33.044 23.8321 33.354C23.499 33.8503 23.3184 34.4336 23.3128 35.0319C23.3109 35.1671 23.2751 35.2998 23.2089 35.4175C23.1032 35.5768 23.0351 35.7581 23.01 35.9478C22.9847 36.1374 23.003 36.3302 23.0635 36.5117C23.0961 36.6325 23.101 36.7589 23.0774 36.8818C23.0541 37.0045 23.0032 37.1203 22.9286 37.2205C22.6164 37.6086 22.4706 38.1054 22.5234 38.6013C22.5234 38.9503 22.2117 39.2995 22.5234 39.6434C22.5297 39.6555 22.533 39.6689 22.533 39.6825C22.533 39.6961 22.5297 39.7095 22.5234 39.7215C22.4068 39.8345 22.3156 39.9708 22.2557 40.1218C22.1957 40.2728 22.1683 40.4347 22.1755 40.597C22.1385 40.9061 22.0812 41.2125 22.0041 41.5141C21.9625 41.7174 21.9002 42.0247 22.0041 42.1237C22.513 42.5927 21.812 43.1763 22.1858 43.6349C22.1962 43.6452 22.134 43.6818 22.0923 43.7652C22.0508 43.8485 21.9937 43.9475 21.9937 44.0256C22.1235 44.9168 21.9417 45.8025 21.9937 46.6989C22.0611 47.866 22.487 48.929 22.6896 50.0494C22.7 50.117 22.8402 50.1639 23.0115 50.2786C23.0239 49.9856 23.0516 49.6932 23.0947 49.4032C23.1829 49.002 23.3232 48.6112 23.4012 48.2099C23.4944 47.7363 23.5619 47.2579 23.6036 46.777C23.5959 46.6706 23.6287 46.5653 23.6951 46.4824C23.7615 46.3992 23.8568 46.3443 23.962 46.3288C24.1281 46.2716 24.232 45.9953 24.3566 45.8077C24.3976 45.7326 24.4274 45.6519 24.445 45.568C24.5437 45.2555 24.6734 44.9427 24.741 44.6249C24.772 44.4062 24.6891 44.1612 24.741 43.9475C24.8759 43.3743 25.0578 42.8116 25.2187 42.2384C25.3763 42.2095 25.5366 42.199 25.6965 42.2071C25.777 42.2315 25.8616 42.2391 25.9451 42.2295C26.0286 42.22 26.1093 42.1933 26.1822 42.1513C26.255 42.1094 26.3187 42.053 26.3692 41.9855C26.4196 41.918 26.4558 41.841 26.4755 41.759C26.6157 41.3734 26.5638 40.92 26.9014 40.6022C26.9377 40.5658 26.8962 40.373 26.839 40.3104C26.5585 40.055 26.6105 39.8362 26.839 39.5965C26.9222 39.5132 27.0261 39.3881 27.0261 39.2995C26.9222 38.7316 27.6908 38.3669 27.4415 37.7363C27.7375 37.4654 27.6181 36.9963 27.7063 36.7514C27.7947 36.5067 27.8829 36.2617 27.9608 36.0116C27.9871 35.9103 28.0079 35.8076 28.023 35.7041L28.3555 35.8083C28.5113 35.8657 28.7398 36.0168 28.8748 35.9542C29.0894 35.8939 29.2869 35.7837 29.4511 35.6326C29.6153 35.4813 29.7417 35.2934 29.82 35.084C29.9467 34.7756 30.136 34.497 30.3757 34.2659C30.5106 34.1045 30.7444 34.021 30.895 33.8648C31.2482 33.4844 31.5493 33.0467 31.9336 32.6923C32.4385 32.3394 32.9034 31.9324 33.3202 31.4783C33.603 31.1464 33.9237 30.849 34.2759 30.5923C34.4213 30.4674 34.5614 30.2848 34.7328 30.2484C35.2313 30.1391 35.569 29.7483 36.0364 29.5555C36.6596 29.321 37.1996 28.8259 37.989 28.7998C37.8021 28.9302 37.5736 29.0083 37.5111 29.1542C37.4515 29.2921 37.3577 29.4123 37.2387 29.5035C37.1196 29.5949 36.9791 29.654 36.8309 29.6752C36.7633 29.6909 36.727 29.8421 36.6751 29.9306L36.7685 29.9983C36.4673 30.1546 36.1713 30.4412 35.865 30.4412C35.7024 30.4313 35.5408 30.4721 35.4023 30.5578C35.2638 30.6438 35.1552 30.7703 35.0912 30.9206C35.0807 30.9206 35.0704 30.8685 34.9768 30.9206C34.8834 30.9727 34.7432 31.0092 34.7068 31.0927C34.5614 31.4417 34.4525 31.7908 34.3278 32.1348C34.2835 32.2795 34.2206 32.4179 34.1408 32.5463C33.876 32.8851 33.585 33.203 33.2995 33.5416L33.5695 33.6303L33.2268 34.9121C33.1147 35.046 33.0221 35.1952 32.9515 35.3551C32.9597 35.6333 32.9493 35.9119 32.9203 36.1887C32.8061 36.5795 33.1177 36.986 32.7749 37.3976C32.5724 37.6581 32.6398 38.1115 32.5049 38.4397C32.2452 39.0703 32.4322 39.8153 32.0168 40.3782C31.7883 40.6908 31.9804 41.019 31.8245 41.363C31.6624 41.9196 31.5853 42.4977 31.5961 43.0773C31.586 43.1024 31.586 43.1305 31.5961 43.1556C31.9181 43.5202 31.6948 43.9527 31.5961 44.2653C31.4302 44.7161 31.4488 45.2145 31.6479 45.6515C31.6844 45.7296 31.6169 45.8494 31.6169 45.9484C31.6169 46.209 31.5078 46.5373 31.6169 46.7301C31.7583 47.0163 31.8278 47.3329 31.8195 47.6524C31.8404 48.3537 32.033 49.039 32.3803 49.6481C32.461 49.8095 32.4777 49.9959 32.427 50.1691C32.3365 50.3553 32.2926 50.5607 32.299 50.7678C32.3053 50.9747 32.3618 51.1771 32.4634 51.3572C32.5049 51.4197 32.4115 51.5813 32.3647 51.7063C32.3179 51.8313 32.2089 51.9565 32.2089 52.0815V53.8272C32.2037 54.1919 32.1622 54.5618 32.1622 54.9266C32.1674 54.9892 32.3023 55.0464 32.375 55.1142C32.3208 55.2219 32.2858 55.3382 32.2711 55.4581C32.2919 55.9009 32.3231 56.3387 32.375 56.7764C32.389 57.0138 32.4453 57.2467 32.5412 57.4643C32.6091 57.5544 32.694 57.63 32.7913 57.6871C32.8884 57.7439 32.996 57.781 33.1075 57.796C33.2191 57.811 33.3324 57.8037 33.4412 57.7746C33.55 57.7453 33.6518 57.6947 33.7409 57.6257C33.8863 57.5371 34.0266 57.2558 34.3069 57.5371C34.424 57.2354 34.5042 56.9204 34.5459 56.5993C34.469 55.8514 34.4308 55.1001 34.4315 54.3482C34.5068 53.941 34.5225 53.5251 34.4783 53.1133C34.4472 52.9517 34.3796 52.7432 34.4472 52.6235C34.7225 52.1024 34.4315 51.5813 34.5511 51.0603C34.6003 50.8311 34.616 50.5957 34.5978 50.3619C34.5614 49.867 34.4939 49.3979 34.4472 48.8769C34.4659 48.758 34.5009 48.6422 34.5511 48.5329C34.6127 48.6384 34.6664 48.7481 34.712 48.8612C34.8471 49.2729 35.2001 49.3458 35.5378 49.3458C35.6755 49.3458 35.8077 49.2909 35.9049 49.1933C36.0024 49.0955 36.0571 48.963 36.0571 48.8248C36.0779 48.2099 36.2649 47.6003 36.0207 46.975C35.8667 46.6508 35.8125 46.288 35.865 45.9329C35.9584 45.5837 35.8078 45.2919 35.8026 45.0627C35.7974 44.8334 35.8131 44.505 35.9532 44.3957C36.115 44.2857 36.2489 44.1394 36.3444 43.9686C36.4401 43.7976 36.4945 43.6065 36.5037 43.4108C36.5245 42.9314 36.457 42.452 36.457 41.9674V39.5965C36.457 39.3412 36.514 39.086 36.514 38.7889C36.6861 38.818 36.8616 38.818 37.0335 38.7889C37.2308 38.742 37.397 38.5283 37.5528 38.5283C37.8071 38.5597 37.9267 38.5075 38.0202 38.2834C38.1392 38.1021 38.2419 37.9101 38.3265 37.7102C38.3814 37.3917 38.4126 37.0695 38.4201 36.7463L38.5395 36.9182C38.7222 36.8811 38.8975 36.8142 39.0588 36.7202C39.438 36.3815 39.7859 36.022 40.1389 35.6781C40.1541 35.6504 40.1645 35.6206 40.1701 35.5895L40.03 35.3863L40.7571 34.391L40.8453 34.6046C41.2659 34.7245 41.5984 34.1566 42.0553 34.537C41.9618 35.0216 41.8476 35.501 41.7697 36.022C41.7178 36.3241 41.5879 36.6733 41.8996 36.8452C41.852 36.9374 41.8121 37.0333 41.78 37.1318C41.7858 37.4044 41.7525 37.6764 41.6813 37.9396C41.4383 38.407 41.3186 38.9289 41.3334 39.4559C41.3491 39.7841 41.3906 40.1385 41.3906 40.498C41.3853 40.7377 41.2867 41.0035 41.2867 41.2587C41.2764 41.3942 41.3646 41.5401 41.3386 41.6705C41.2867 41.9726 41.1258 42.2644 41.1258 42.5667C41.0686 43.2701 41.0686 43.9787 41.0686 44.6823C41.0634 45.0417 41.1153 45.4014 41.1153 45.7608C41.1001 45.8478 41.0775 45.9332 41.0478 46.0162C41.0219 46.1674 41.0166 46.3445 40.9804 46.4747C40.9439 46.6051 40.9439 46.7405 40.9439 46.8708C40.9439 47.2252 40.9284 47.6263 40.9439 47.9129C40.9595 48.1995 41.136 48.5591 41.0166 48.7519C40.8196 49.0878 40.7548 49.4854 40.8348 49.8669C40.892 50.2525 40.9544 50.7216 41.0271 51.0237C41.0998 51.326 41.2971 51.6073 41.3386 51.9096C41.3533 52.2748 41.3393 52.6407 41.2971 53.0038C41.2764 53.3999 41.2297 53.801 41.2297 54.1971C41.2192 54.4056 41.1725 54.6139 41.1725 54.8953C41.447 55.4437 41.6228 56.0364 41.6918 56.6462V57.4798V59.413C41.6813 59.7361 41.6451 60.0593 41.6451 60.3823C41.6503 61.0857 41.6658 61.7736 41.6918 62.4665C41.7023 62.8416 41.7749 63.2846 41.7749 63.5973V64.5352C41.7957 65.1345 41.8217 65.7337 41.8527 66.3381C41.8632 66.6351 41.9151 66.9322 41.9151 67.2345C41.9439 67.3561 41.9439 67.4827 41.9151 67.6044C41.7408 68.1566 41.7228 68.7464 41.8632 69.3082H41.7905C41.723 69.7981 41.6398 70.2515 41.5984 70.7152C41.5706 71.0621 41.5706 71.4106 41.5984 71.7573C41.6139 72.0543 41.7282 72.3462 41.7282 72.638C41.7282 73.2269 41.6139 73.8155 41.6554 74.3992C41.6566 75.022 41.7387 75.6421 41.8996 76.2439C41.9772 76.6589 42.0309 77.0782 42.0605 77.4995C42.1904 78.1717 42.5226 78.6095 42.6682 79.2817C42.7458 79.5191 42.8694 79.7386 43.0317 79.9279C43.2394 80.178 43.9509 80.0476 44.0028 79.7351C44.0652 79.3442 44.2626 78.9117 43.8782 78.5366C43.8055 78.4635 43.8782 78.2396 43.8782 78.0832C43.8986 77.9962 43.909 77.9069 43.9094 77.8175C43.9078 77.8091 43.9062 77.8007 43.9046 77.7922C43.4158 76.4314 41.3604 69.5062 42.4344 68.3651C43.6704 67.0521 42.663 69.9285 42.7773 70.7361C42.8707 71.3614 42.959 71.9919 43.0576 72.6172C43.0993 72.8934 43.1772 73.1383 43.203 73.4404C43.1945 73.6166 43.1666 73.7913 43.12 73.9615C43.2579 74.1457 43.3383 74.3668 43.3512 74.5967C43.3641 74.8266 43.309 75.0552 43.1927 75.2537C43.3264 75.4594 43.4361 75.6798 43.5199 75.9104C43.5955 76.2166 43.6614 76.5251 43.7228 76.8344C43.7246 76.7393 43.7385 76.6403 43.769 76.5357C43.8201 76.1042 43.7865 75.667 43.6704 75.2485C43.5496 74.7351 43.4732 74.212 43.4418 73.6853C43.4889 72.7497 43.4368 71.8117 43.2862 70.8871C43.2135 70.4181 43.4575 70.2463 43.9144 70.4181L44.1846 70.5067C44.3192 70.0554 44.3875 69.5866 44.387 69.1154C44.33 68.313 44.4599 67.5053 44.4599 66.6977C44.4353 65.8589 44.3642 65.0221 44.2469 64.1913C44.1897 63.7954 44.5688 63.6026 44.6623 63.2741L44.8753 65.1657C44.8173 65.3861 44.7772 65.611 44.7559 65.8379C44.762 66.1866 44.788 66.5345 44.8336 66.8801C44.8805 67.2866 44.9583 67.6877 45.0052 68.0942C45.0726 68.7247 45.1556 69.3551 45.1868 69.9909C45.2128 70.4234 45.1506 70.8611 45.1506 71.2988C45.1678 71.6696 45.2112 72.0388 45.2803 72.4035C45.3458 72.8038 45.4326 73.2004 45.54 73.5915C45.7556 74.0345 45.8177 74.5369 45.7166 75.0192C45.5268 75.5417 45.4907 76.1079 45.6127 76.6502C45.6265 76.911 45.6972 77.1654 45.8205 77.3955C45.9711 77.6195 45.8775 78.0103 45.9711 78.3072C46.1057 78.8003 46.3048 79.2735 46.5631 79.7141C46.7397 79.9382 47.0097 80.1414 47.0824 80.4594C47.1863 80.9491 47.2902 81.4337 47.3992 81.9235C47.5343 82.5279 47.6485 83.1377 47.8095 83.7369C47.903 84.1015 48.121 84.4507 48.1782 84.8206C48.2872 85.3731 48.2457 85.941 48.2872 86.4985C48.3145 86.7162 48.3949 86.9239 48.521 87.1031C48.8014 87.4939 48.7495 87.9628 48.9001 88.3796C48.9085 88.4558 48.9085 88.5327 48.9001 88.6089C48.978 89.2187 48.6508 89.8542 49.0247 90.4431V90.6464C49.039 90.9631 49.0772 91.2785 49.1389 91.5895C49.3605 92.451 49.5995 93.3038 49.8556 94.148C49.9335 94.4501 50.1465 94.7888 50.4528 94.8305C50.7593 94.8724 50.8215 95.0442 50.7905 95.3204C50.7828 95.4713 50.7828 95.6226 50.7905 95.7738C50.7955 96.0604 51.2681 96.8107 51.5382 96.8576C51.9121 96.9201 51.8498 97.1546 51.8498 97.41C51.8539 97.6019 51.8817 97.7928 51.933 97.9779C52.0005 98.2593 52.203 98.5407 52.1511 98.7803C52.0507 99.2125 52.0712 99.664 52.2105 100.085C52.3498 100.506 52.6024 100.881 52.9404 101.167C53.0858 101.276 53.2676 101.49 53.2676 101.62C53.2002 102.011 53.4752 102.199 53.6468 102.438C53.9688 102.892 54.301 103.335 54.6387 103.772C54.6906 103.84 54.7996 103.897 54.8671 103.897C54.9115 103.883 54.9516 103.857 54.984 103.824C55.0166 103.79 55.0407 103.749 55.0541 103.704C55.117 103.427 55.157 103.145 55.1735 102.86C55.1995 102.402 55.1735 101.943 55.1735 101.49C55.189 101.11 55.0281 100.969 54.8203 100.969C54.8723 100.854 54.9814 100.708 54.9814 100.594C54.888 100.187 54.7374 99.7965 54.6075 99.3952C54.5517 99.2575 54.5201 99.1112 54.514 98.9627C54.5785 98.7014 54.6167 98.4343 54.6282 98.1655C54.514 97.4829 54.3322 96.8107 54.1921 96.1332C54.1661 95.926 54.1556 95.7169 54.1609 95.5079C54.1701 95.3938 54.1579 95.2789 54.1244 95.1692C53.9998 94.8619 53.8337 94.6222 53.709 94.3408C53.5169 93.9031 53.5065 93.382 53.117 93.0276C53.0687 92.9614 53.0366 92.8847 53.0236 92.8036C52.9357 92.4675 52.8283 92.1369 52.7016 91.8135C52.6303 91.6855 52.5208 91.583 52.3885 91.5203C52.2564 91.4577 52.108 91.4382 51.964 91.4645C51.6785 91.48 51.4447 91.4488 51.4447 91.058C51.4754 90.6872 51.413 90.3145 51.2631 89.9742C50.9981 89.4665 50.8862 88.8927 50.9411 88.3223C50.8947 87.3745 50.7837 86.4309 50.6087 85.4981C50.5203 84.977 50.2919 84.4559 50.2088 83.9349C50.0477 82.8511 49.9335 81.7619 49.8193 80.6677C49.7933 80.4489 49.9023 80.1676 49.8713 79.9279C49.8089 79.4745 49.6894 79.042 49.6063 78.5783C49.5233 78.1146 49.4609 77.6402 49.3934 77.1713C49.3415 76.8066 49.2948 76.4417 49.2531 76.0718C49.2013 75.6186 49.2064 75.1704 49.1077 74.7015C49.0091 74.2325 48.6923 73.7687 48.7287 73.3259C48.7347 72.8681 48.6065 72.4187 48.3599 72.0336C48.2549 71.8769 48.112 71.7496 47.9445 71.6635C47.7778 71.5718 47.6042 71.4935 47.4251 71.429C47.2745 71.549 47.1344 71.648 47.046 71.2831C46.9484 70.9695 46.8249 70.6646 46.6773 70.3712L46.9266 70.2722C47.0045 70.0921 47.0605 69.9032 47.0927 69.7095C47.0866 69.4407 47.0624 69.1726 47.02 68.9071C46.9266 68.1463 47.2538 67.3959 47.0877 66.6247C47.0744 66.3562 47.0918 66.0869 47.1396 65.8222V64.6811C47.1497 64.572 47.1497 64.462 47.1396 64.3529C47.072 63.8318 46.989 63.3108 46.9266 62.7897C46.9111 62.6855 46.9578 62.5707 46.9578 62.4717C46.9327 62.1902 46.8495 61.917 46.7137 61.6693C46.402 61.2889 46.345 61.2889 46.345 60.7679L46.5059 60.9607V59.5537C46.5112 59.4861 46.5112 59.4181 46.5059 59.3505C46.436 59.0072 46.3944 58.6586 46.3813 58.3083C46.3918 57.8499 46.5215 57.3965 46.5215 56.938C46.5371 56.0573 46.2619 55.2028 46.3865 54.2961C46.4385 53.9053 46.4437 53.4885 46.5267 53.0872C46.5812 52.8318 46.6124 52.5719 46.6203 52.3107V49.992C46.6253 49.7523 46.6513 49.5491 46.2307 49.6898C46.5007 49.4084 46.5424 49.2208 46.2307 49.0644C46.1779 49.024 46.1395 48.9672 46.1217 48.903C46.0816 48.8059 46.0469 48.7067 46.0178 48.606C45.8984 48.6633 45.7321 48.6893 45.6751 48.7831C45.5543 48.9604 45.4776 49.164 45.4518 49.3772C45.4727 49.7677 45.4727 50.159 45.4518 50.5495C45.2522 51.4227 45.1581 52.3166 45.1713 53.2123V55.0881H45.0259V54.1971C45.057 53.4311 45.057 52.6704 45.057 51.9044C45.0726 51.3469 45.1194 50.7892 45.1194 50.2317C45.1401 49.5907 45.1038 49.0176 45.1921 48.3246C45.2803 47.6315 45.1713 46.9176 45.4154 46.2402C45.4466 46.1517 45.3686 46.0267 45.3686 45.9172C45.3535 45.8682 45.3448 45.8173 45.3427 45.7661C45.6959 45.5994 45.4569 45.3493 45.4569 45.1148V44.4164C45.4569 43.3743 45.7269 42.3322 45.5036 41.2901V41.2535C45.4548 40.996 45.3835 40.7431 45.2907 40.498C45.1401 40.1906 44.8648 40.1957 44.5741 40.3052C44.4357 40.3395 44.2952 40.3639 44.1534 40.3782C44.14 39.9093 44.1696 39.44 44.2416 38.9765C44.3961 38.5297 44.4337 38.0506 44.3508 37.5852C44.4287 37.4653 44.5741 37.3455 44.5741 37.2205C44.6156 36.6107 44.6156 35.9959 44.6156 35.3863C44.6283 35.297 44.6564 35.2105 44.6987 35.1309C44.8234 34.7974 44.974 34.4691 45.0674 34.1304C45.0934 34.0314 44.974 33.8907 44.9168 33.7658C45.2545 33.6615 45.2545 32.9736 44.9168 32.5204C44.9792 32.437 45.0674 32.3797 45.0674 32.3067C45.1141 32.1452 45.0674 31.843 45.1713 31.7856C45.328 31.6787 45.4562 31.5349 45.5449 31.3669C45.6336 31.199 45.68 31.0118 45.6802 30.8216C45.8181 31.009 45.9185 31.2213 45.9762 31.4469C46.0126 31.5459 45.9762 31.6711 45.9762 31.7751C46.1113 32.3745 46.2411 32.9736 46.4073 33.5625C46.4904 33.87 46.6618 34.1566 46.7552 34.4639C46.8771 34.875 46.9759 35.2925 47.0512 35.7145C47.1291 36.0532 47.0824 36.4127 47.1291 36.7566C47.2018 37.3507 47.4823 37.9134 47.285 38.5492C47.1811 38.9296 47.8563 39.1015 47.7004 39.5913C47.6849 39.6434 47.8665 39.7894 48.0848 39.8675C48.3029 39.9457 48.5054 40.175 48.7755 39.9769C48.8169 39.9457 48.9416 40.0343 49.0298 40.0655L48.9208 40.1228L49.061 40.7117C49.1389 41.0035 49.2064 41.3109 49.2843 41.5767C49.4925 42.042 49.7829 42.4656 50.1413 42.8273C50.2295 42.9366 50.4009 43.0044 50.4476 43.1242C50.5189 43.3811 50.5745 43.6421 50.6139 43.9058C50.6294 43.9684 50.6866 44.0674 50.7228 44.0674C51.2681 44.0727 51.1175 44.4686 51.1175 44.8125C51.3203 44.8625 51.4984 44.9835 51.6203 45.1535C51.7419 45.3235 51.7995 45.5314 51.7824 45.7401C51.8134 46.1224 51.9602 46.486 52.203 46.7822C52.4211 47.0895 52.5145 47.5273 52.9924 47.6108C53.0495 47.616 53.1118 47.7826 53.1118 47.8764C53.2261 48.4236 53.2729 48.9811 53.9219 49.2208C54.0207 49.2555 54.1107 49.3113 54.186 49.384C54.2613 49.4569 54.32 49.5452 54.3582 49.6429C54.4569 50.3046 54.4776 50.9716 54.54 51.6385C54.5555 51.8418 54.6697 52.0241 54.4309 52.1962C54.3737 52.2638 54.4931 52.5454 54.5243 52.7172C54.6594 53.5249 54.2958 54.3535 54.6282 55.1559V55.1975C54.6647 55.4165 54.7009 55.6926 54.7476 55.9375C54.7645 56.0313 54.789 56.1237 54.8203 56.2137C54.9347 56.594 54.9035 57.037 55.3968 57.2558C55.5004 57.3218 55.6173 57.3639 55.739 57.3788C55.8609 57.3938 55.9843 57.3815 56.1007 57.3424C56.2172 57.3035 56.3234 57.239 56.4119 57.1538C56.5003 57.0686 56.5686 56.9645 56.612 56.8494C56.7419 56.521 56.8041 56.1563 56.9028 55.8071C56.9237 55.7343 56.96 55.6143 57.0119 55.6143C57.4638 55.4581 57.0743 55.0152 57.3027 54.7912L57.1626 54.7493C57.2352 54.6087 57.3444 54.4837 57.3444 54.369C57.3132 53.6499 57.2248 52.936 57.2248 52.2222C57.2197 52.066 57.3703 51.8991 57.4378 51.7741C57.552 52.0815 57.6664 52.3369 57.7443 52.6025C57.8792 53.056 57.9726 53.5249 58.118 53.9731C58.2896 54.5253 58.4712 55.083 58.6945 55.6041C58.8467 55.8863 59.0203 56.1563 59.2138 56.4117C59.2635 56.4853 59.3054 56.5639 59.3385 56.6462C59.4061 56.7868 59.4631 56.964 59.541 57.1672C59.2088 57.5476 59.2088 57.7195 59.5048 58.2093L60.0241 58.1365C60.0448 57.8603 60.0968 57.5371 60.0968 57.2141C60.1043 56.8656 60.1303 56.5177 60.1747 56.172C60.2471 55.9152 60.3391 55.6644 60.45 55.4215C60.4862 55.3227 60.4603 55.1663 60.5277 55.1194C60.7822 54.9371 60.694 54.7234 60.6264 54.4941C60.6264 54.3587 60.5797 54.0773 60.6264 54.0773C60.9693 53.9262 60.7407 53.6656 60.72 53.5144C60.6992 53.3633 60.5954 53.2176 60.5954 53.0819C60.6368 52.686 60.7303 52.2952 60.7927 51.8991C60.8082 51.8106 60.803 51.6699 60.751 51.6282C60.4343 51.3728 60.6213 51.2269 60.8342 51.1072C60.777 50.8466 60.7303 50.6016 60.6628 50.3567C60.5486 49.9242 60.2214 49.57 60.3096 49.0489C60.3304 48.929 60.185 48.7831 60.1175 48.6476C60.0448 48.5458 60.0056 48.4238 60.0056 48.2985C60.0056 48.1733 60.0448 48.0511 60.1175 47.9495C60.2068 47.8421 60.2599 47.7091 60.2692 47.5696C60.2786 47.4302 60.2436 47.2914 60.1695 47.173L60.076 47.397C60.0033 47.3033 59.9409 47.1314 59.863 47.1314C59.4476 47.0895 59.6034 46.9124 59.7176 46.6989C59.8838 46.3914 59.7384 46.1412 59.4528 45.9589C59.2454 45.798 59.0693 45.6001 58.9335 45.3752C58.8474 45.2365 58.7744 45.0899 58.7153 44.9375L59.1568 44.8334C58.7257 44.2862 58.3518 43.7756 57.9312 43.3067C57.739 43.1034 57.6404 42.6864 57.2197 42.7855C57.199 42.6814 57.1833 42.4834 57.1521 42.4834C56.6328 42.4468 56.7834 41.9049 56.6328 41.7017C56.4822 41.4984 56.5498 41.1442 56.4095 40.9357C56.2592 40.7849 56.1445 40.6022 56.0736 40.4012C56.0024 40.2002 55.9772 39.9858 55.9993 39.7737C56.0057 39.7182 55.9909 39.6623 55.9576 39.6175C55.7253 39.2388 55.465 38.8782 55.1787 38.5387C55.1118 38.4654 55.064 38.3766 55.0396 38.2802C55.0152 38.1838 55.0149 38.0829 55.0386 37.9865C55.07 37.6602 54.9893 37.3329 54.81 37.0589C54.4678 36.7268 54.0918 36.4317 53.6883 36.1782C53.6857 36.0663 53.6735 35.9547 53.6518 35.8447C53.6165 35.699 53.5371 35.5679 53.4247 35.4691C53.3123 35.3702 53.1721 35.3085 53.0236 35.2925C52.93 35.2716 52.8573 35.1413 52.7743 35.0632L53.1118 34.9173L52.7483 34.7193C52.634 34.2816 52.5302 33.8386 52.3899 33.4061C52.312 33.1978 52.1995 33.004 52.0576 32.8329C51.8966 32.6663 51.6628 32.562 51.5382 32.3849C51.3305 32.0774 51.1902 31.7282 50.9878 31.4157C50.8632 31.2177 50.6294 31.0458 50.536 30.8946C50.4425 30.7435 50.458 30.5143 50.3541 30.3736C49.9647 29.8525 49.5493 29.3731 49.1389 28.8519C48.817 28.456 48.4845 28.0704 48.173 27.6639C48.1108 27.6015 48.0796 27.4346 48.173 27.3877C48.2664 27.3409 48.443 27.3304 48.4845 27.3877C48.7338 27.7003 49.035 27.5858 49.3103 27.4972C49.7102 27.3721 49.7881 27.4087 49.8296 27.8462C50.3179 27.8514 50.6969 28.0183 50.78 28.5393C50.9742 28.5986 51.1719 28.6457 51.372 28.68C51.8134 28.7426 52.0732 29.1177 52.4419 29.3001C52.8759 29.5026 53.2239 29.8536 53.4235 30.2901C53.5221 30.4933 53.7505 30.8111 53.8961 30.8111C54.218 30.7852 54.275 30.952 54.3582 31.1551C54.6437 31.8377 54.9242 32.5411 55.2099 33.2395C55.2431 33.301 55.2832 33.3587 55.3294 33.4113C55.5983 33.7025 55.8272 34.0285 56.0096 34.3806C56.1062 34.6836 56.2908 34.9506 56.5397 35.1474C56.7886 35.3443 57.0906 35.4619 57.4066 35.4853C57.9676 35.5217 58.0453 35.8345 58.2272 36.173L58.3882 35.9594L58.6685 36.814C58.9178 36.9651 59.6814 36.788 59.3904 37.455C59.4964 37.5801 59.5935 37.7125 59.6814 37.8509C59.7851 38.0334 59.8215 38.2886 59.9774 38.4033C60.273 38.6758 60.629 38.874 61.016 38.9817C61.3015 39.0181 61.7534 39.435 62.0027 38.8358C62.0286 38.7941 62.2934 38.8046 62.439 38.8358C62.4908 38.8463 62.548 39.0025 62.548 39.1015C62.5947 39.2943 62.6154 39.4975 62.6778 39.6851C62.8755 40.1587 63.0488 40.6423 63.1971 41.1337C63.2853 41.535 63.4464 41.7277 63.8047 41.686L64.2358 42.6762C64.302 42.7787 64.3594 42.8867 64.4071 42.9992C64.5006 43.2858 64.5734 43.5776 64.6669 43.9163L64.4176 43.9996L64.8435 44.5207V45.1512L65.8042 45.6723C65.8434 45.6046 65.8924 45.5433 65.9495 45.4899C66.2255 45.287 66.4704 45.0447 66.6767 44.7708C66.8262 44.5608 66.9268 44.3197 66.9709 44.0652C67.015 43.8108 67.0014 43.5497 66.9312 43.3015C66.8994 43.1554 66.8994 43.0044 66.9312 42.8585C66.9899 42.6852 66.9995 42.4991 66.9592 42.3207C66.919 42.1422 66.8301 41.9785 66.7026 41.8476C66.6207 41.7528 66.5757 41.6316 66.5757 41.5063C66.5757 41.3809 66.6207 41.2598 66.7026 41.1649C66.9519 40.7169 66.874 40.4303 66.3547 40.2844L66.5468 39.831C66.9362 40.1019 67.0661 40.6282 67.5854 40.7534C67.7153 40.7846 67.7984 41.04 67.8919 41.2014C67.9334 41.2692 67.9386 41.3839 67.9958 41.4151C68.4943 41.6912 68.6033 42.2227 68.7851 42.6762C69.0032 43.2805 69.3304 43.7652 70.0418 43.8433C70.1345 43.8708 70.2222 43.9132 70.3016 43.9684C70.4672 43.6269 70.5843 43.2638 70.6495 42.8897C70.665 42.5093 70.8676 42.0456 70.3898 41.7226C70.3003 41.6599 70.2271 41.5764 70.1766 41.4794C70.126 41.3823 70.0993 41.2746 70.099 41.1649C70.1278 40.8963 70.0976 40.6247 70.0106 40.369C69.9236 40.1134 69.7819 39.88 69.5952 39.6851C69.1902 39.0912 68.7227 38.57 68.271 38.0489C68.1255 37.8643 67.9499 37.7058 67.7517 37.58C67.2063 37.2726 66.6142 37.0432 66.0949 36.6942C65.8094 36.5014 65.3938 36.4388 65.2536 36.0116C65.2017 35.8552 64.9991 35.7457 64.8435 35.6364C64.4383 35.3498 64.2617 34.6932 63.5866 34.8288C63.5556 34.8288 63.5555 34.7662 63.5555 34.7662C63.2594 34.4744 62.9634 34.1618 62.6571 33.896C62.3506 33.6303 62.0131 33.4009 61.6912 33.1561L60.4915 32.239C60.154 31.9941 59.8111 31.7439 59.4891 31.473C59.2907 31.3008 59.1035 31.1164 58.9283 30.9206C58.6842 30.6654 58.4452 30.41 58.2169 30.1442C58.061 29.9618 57.8947 29.7117 57.7703 29.571C57.6456 29.4303 57.4638 29.3313 57.3547 29.1803C57.1573 28.8988 57.0067 28.5758 56.8094 28.2944C56.6744 28.1016 56.4407 27.9714 56.3525 27.7734C56.1135 27.2366 55.5474 27.1585 55.1423 26.8927C54.5867 26.5227 53.9064 26.3456 53.4338 25.7932C53.4026 25.9131 53.3715 26.0224 53.3715 26.0224C53.0088 25.8291 52.6361 25.6551 52.255 25.5014C51.8134 25.3504 51.3513 25.2565 50.8942 25.1419L50.832 24.9803C50.9151 24.9282 51.0086 24.8241 51.0865 24.8241C51.4236 24.8684 51.7582 24.931 52.0887 25.0117C52.4263 25.095 52.8262 25.0689 53.1273 25.3659C53.1792 25.4024 53.2988 25.4024 53.3923 25.4024C53.5945 25.3902 53.7974 25.4078 53.9947 25.4545C54.3115 25.5849 54.5608 25.788 54.9139 25.9287C55.267 26.0695 55.6409 26.1112 56.02 26.2518C56.3992 26.3925 56.8666 26.3456 57.1211 26.7729C57.1573 26.825 57.4066 26.8303 57.495 26.7729C57.8585 26.5384 58.1752 26.2414 58.5336 26.0174C58.717 25.9103 58.9333 25.8751 59.1411 25.9184C59.4839 26.0536 59.8186 26.2084 60.1435 26.3821C60.2246 26.396 60.3077 26.3793 60.3773 26.3352C60.5694 26.2414 60.7719 26.0538 60.9433 26.0538C61.3223 26.1267 61.7638 26.184 61.7638 26.6477C62.0365 26.7572 62.3158 26.8494 62.5999 26.924C62.8433 26.9912 63.098 27.007 63.3478 26.9709C63.539 26.8911 63.7147 26.7783 63.8671 26.6375C63.9729 26.9453 64.1798 27.208 64.4538 27.3825C64.5584 27.4871 64.6322 27.6189 64.6669 27.7629C64.7003 27.8715 64.7228 27.9832 64.7343 28.0964H64.8227V27.8828L66.1314 28.013C66.23 28.1485 66.3547 28.2839 66.4793 28.2839C66.6758 28.288 66.8686 28.3371 67.0433 28.4274C67.2179 28.5177 67.3696 28.6469 67.4867 28.805C67.5737 28.8739 67.67 28.93 67.7725 28.9718L67.8504 28.8885V29.0813C68.0104 29.1582 68.1664 29.2434 68.3177 29.3365C68.4579 29.4251 68.5825 29.5293 68.7124 29.6283C69.0281 29.8292 69.3269 30.0558 69.6057 30.3058C70.0089 30.7191 70.3772 31.1652 70.7067 31.6397C70.9403 31.9732 71.2623 32.2702 71.226 32.7601C71.1948 33.1664 71.4129 33.3697 71.8388 33.3697C71.8837 33.3779 71.9273 33.3918 71.9686 33.4113L71.9374 33.5989C72.0547 33.6641 72.1614 33.7467 72.2542 33.8438C72.3736 34.0262 72.4255 34.2556 72.5502 34.4275C72.7445 34.6944 72.9635 34.9421 73.2046 35.1673C73.2612 35.1956 73.3243 35.2081 73.3873 35.2036C73.4504 35.1989 73.511 35.1774 73.563 35.1413C73.7497 34.8656 73.913 34.5744 74.0511 34.2711C74.124 34.0604 74.1813 33.8444 74.2225 33.6251C74.129 33.5156 73.9369 33.3957 73.89 33.229C73.8274 33.0233 73.8386 32.8021 73.9212 32.6037C74.0096 32.4004 74.0459 32.2754 73.8693 32.1086C73.7518 31.9862 73.6521 31.8477 73.5733 31.697C73.2565 31.1134 72.976 30.509 72.6229 29.9514C72.5139 29.7899 72.462 29.5919 72.3633 29.4303C72.1712 29.1177 71.8855 28.8519 71.6881 28.5653C71.4908 28.2787 71.4129 27.9297 71.013 27.7993C70.8261 27.7369 70.6858 27.518 70.5249 27.3668L70.6131 27.2471C70.9091 27.4346 71.2 27.6118 71.5013 27.7681C71.6276 27.8173 71.7579 27.8556 71.8907 27.8828C72.0551 27.9318 72.2165 27.9909 72.3736 28.0599C72.732 28.2371 73.0695 28.456 73.4383 28.6122C73.9469 28.8301 74.4669 29.0198 74.9963 29.1803C75.2196 29.2272 75.4896 29.1282 75.7389 29.1803C75.9882 29.2323 76.227 29.446 76.4711 29.446C76.7033 29.405 76.9419 29.4195 77.1675 29.4884C77.3931 29.5572 77.5993 29.6784 77.7694 29.8421C77.9615 29.6493 77.9408 29.5293 77.7123 29.4251C77.5665 29.3517 77.4382 29.2476 77.3361 29.1198C77.2339 28.9922 77.1603 28.8439 77.1203 28.6852C76.9594 28.2475 76.8867 27.6848 76.196 27.6848C76.1711 27.6804 76.1475 27.6708 76.127 27.6564C76.1062 27.6421 76.0891 27.6233 76.0764 27.6015C75.6195 26.8041 74.83 26.3611 74.186 25.762C74.129 25.7151 74.0304 25.7099 73.9627 25.6682C73.6357 25.4442 73.1681 25.2931 73.0125 24.9803C72.6229 24.1831 71.7556 24.3447 71.2053 23.907C70.7741 24.1206 70.4522 23.8549 70.1095 23.6569C69.9749 23.5897 69.8283 23.5507 69.6783 23.5422C69.2162 23.5162 68.7539 23.5631 68.406 23.1306C68.2417 22.9107 68.0005 22.7617 67.7308 22.7138C67.3007 22.6946 66.8841 22.5576 66.526 22.3177H66.2975L65.1654 22.0259C64.9732 22.1301 64.7708 22.0623 64.5318 21.7288C64.4955 21.6924 64.3812 21.7133 64.2305 21.7288C64.0799 21.7445 63.8516 21.8488 63.7891 21.781C63.4189 21.4006 62.9329 21.155 62.4078 21.0828L62.3144 21.338L61.4054 21.4318C61.4107 21.4163 61.4469 21.3277 61.4469 21.3277C61.0782 21.2547 60.6524 21.1609 60.3149 21.1035C59.9774 21.0462 59.619 20.7857 59.3489 21.1452L58.8296 21.1192L58.7724 20.7962C58.6166 20.8169 58.3985 20.916 58.2896 20.8431C57.8585 20.5668 57.4326 20.7127 57.0015 20.7127C56.927 20.6464 56.8352 20.603 56.7367 20.5877C56.6225 20.5772 56.5446 20.6451 56.3887 20.546C56.2367 20.4397 56.0497 20.3966 55.8666 20.4258C55.6836 20.4549 55.519 20.5541 55.4073 20.7024C55.1475 20.7024 54.971 20.6815 54.6957 20.7024C54.4204 20.7232 54.1504 20.7805 53.8751 20.8117C53.7557 20.8117 53.6103 20.7648 53.5117 20.8117C52.9769 21.0776 52.3692 20.89 51.8498 21.0359C51.4154 21.1074 50.9991 21.2632 50.6242 21.4944C50.3059 21.7227 49.9401 21.876 49.5543 21.9426C49.1208 22.0874 48.6975 22.2616 48.2872 22.4636L48.173 21.9426C48.6041 21.979 49.0247 21.4266 49.0715 20.8379C49.1337 20.8379 49.2116 20.8638 49.2531 20.8379C49.4661 20.7179 49.6894 20.5617 49.8763 20.4575C50.0634 20.3532 50.3127 20.3168 50.4528 20.1709C50.6542 19.934 50.8283 19.6753 50.9721 19.3997C51.1072 19.16 51.2214 18.941 51.3877 18.6389L52.6132 18.5868C52.8313 18.6056 53.0509 18.5863 53.2624 18.5295C53.683 18.3107 54.0622 18.0291 54.4724 17.7894C55.1373 17.3831 55.9473 17.456 56.6952 17.456C57.1885 17.456 57.3599 17.4196 57.4014 16.8985C57.5937 17.0287 57.7131 17.0235 57.7443 16.7474C57.7659 16.6278 57.8328 16.5213 57.9312 16.4504C58.4764 16.1065 59.0322 15.7834 59.5982 15.4447L58.9543 13.746C59.0996 13.6001 59.0996 13.6001 59.5308 13.6001C59.5553 13.59 59.5782 13.576 59.5982 13.5584C60.0811 13.2562 60.6161 13.0061 60.7719 12.3808C60.8134 12.2036 60.8499 12.0316 60.8861 11.8597C60.8914 11.796 60.9145 11.7351 60.9532 11.6843C60.9919 11.6334 61.0444 11.5949 61.1042 11.5731C61.4469 11.4064 61.7171 11.1041 62.1428 11.1406C62.1793 11.1458 62.226 11.0729 62.2675 11.0416L62.8128 10.6821C62.8759 10.6387 62.935 10.5899 62.9893 10.5361C63.1386 10.6304 63.3016 10.7007 63.4724 10.7446C63.7278 10.7708 63.9856 10.7549 64.2358 10.6977C64.563 10.6195 64.8745 10.4788 65.1914 10.3694C65.3466 10.3003 65.5109 10.2546 65.6795 10.2339C66.1261 10.2235 66.5728 10.26 67.0194 10.26C67.2481 10.2427 67.4754 10.2096 67.6998 10.161L68.9357 9.95775C69.2005 9.70763 69.507 9.38979 69.8392 9.1032C69.9276 9.02503 70.099 9.02503 70.2391 9.02503C70.6702 8.99377 71.1636 9.25952 71.5063 8.76449C71.522 8.72802 71.579 8.72802 71.6154 8.72802C72.1348 8.54043 72.6541 8.38411 73.1734 8.20695C73.5163 8.08607 73.851 7.94335 74.1757 7.77966C74.4203 7.64098 74.653 7.48238 74.8716 7.30548C75.1002 7.12831 75.3078 6.93032 75.5571 6.71145C75.8168 6.69062 76.227 6.85736 76.4815 6.60203C76.736 6.3467 76.9594 6.38839 77.2554 6.30501C77.5514 6.22165 77.8006 5.98196 77.7332 5.73184C77.6715 5.55369 77.5986 5.37965 77.5149 5.21076C76.9088 5.25351 76.3198 5.43153 75.7909 5.73184C75.615 5.81117 75.4222 5.8452 75.2299 5.83083C74.7522 5.79437 74.2744 5.73184 73.7966 5.65888C73.6564 5.63803 73.5161 5.50256 73.3864 5.50256C73.0852 5.5234 72.7944 5.62241 72.4932 5.66931C72.0716 5.75642 71.6447 5.8156 71.2155 5.84647C70.8301 5.84119 70.4452 5.81509 70.0626 5.7683C70.023 5.7637 69.9829 5.7637 69.9431 5.7683L69.507 5.82041C69.4291 5.8569 69.3199 5.81 69.2784 5.8569C68.6709 6.46133 67.8711 6.1487 67.17 6.28418C66.8831 6.30496 66.5949 6.30496 66.308 6.28418C65.8641 6.37718 65.4088 6.40178 64.9576 6.35712C64.5293 6.293 64.0916 6.35264 63.6957 6.52907C63.2594 6.6333 62.8232 6.72188 62.3714 6.82609L62.4493 6.99283L62.0339 7.19606C61.5768 6.80004 61.5198 6.81047 61.1976 7.15437C61.039 7.05107 60.8631 6.97696 60.6783 6.93551C60.3703 6.94172 60.0638 6.9819 59.7643 7.05536C59.5288 7.08588 59.3024 7.16578 59.0997 7.28984C58.949 7.42011 58.975 7.77445 58.7829 7.81093C58.5906 7.8474 58.3623 7.67545 58.1909 7.61292C58.08 7.7211 57.9582 7.81717 57.8273 7.89951C57.4741 8.09231 57.1054 8.24341 56.7524 8.42058C56.6755 8.4697 56.6199 8.54595 56.5965 8.63423C56.5643 8.78044 56.54 8.92828 56.5238 9.07714L56.4511 8.99899C56.1238 9.17741 55.8288 9.40994 55.5786 9.6868C55.2567 10.2066 54.8325 10.6551 54.3322 11.0051C54.0904 11.1465 53.8699 11.322 53.6778 11.5262C53.4962 11.7398 53.5272 12.0785 53.1585 12.2609C52.634 12.5162 52.2393 13.0113 51.6473 13.1936C51.5382 13.2249 51.4552 13.376 51.3668 13.475C51.0915 13.7877 50.8112 14.1576 50.5722 14.4182C50.3334 14.6787 49.9283 14.8976 49.8503 15.1998C49.653 15.9449 48.9831 16.3253 48.7078 16.9871C48.6231 17.1593 48.4894 17.3025 48.3236 17.3987C47.903 17.6488 47.4563 17.8832 47.342 18.4409C47.3265 18.5085 47.2383 18.5607 47.1811 18.6128L46.693 19.0714C46.5713 19.0869 46.4564 19.1356 46.3605 19.2121C45.9035 19.7332 45.4621 20.2542 45.0362 20.7753C44.8973 20.9883 44.7773 21.2132 44.678 21.4475L44.2001 21.0411L44.4754 20.9055C44.3401 20.7488 44.2282 20.5734 44.143 20.3844C44.0183 19.8529 43.6237 19.4204 43.6237 18.8577C43.627 18.8459 43.627 18.8331 43.6237 18.8213C43.3121 18.3679 43.1718 17.7792 42.6162 17.5029C42.5746 17.4821 42.5538 17.4039 42.5071 17.3206L42.7824 17.2789V17.2059L42.5071 17.1173L42.5955 17.0496C42.5195 16.8899 42.4309 16.7365 42.3305 16.5911C41.8787 16.0491 41.4061 15.5489 41.3594 14.7985C41.3531 14.7006 41.3411 14.6032 41.3231 14.5067L39.6196 12.8393C39.5521 12.6361 39.495 12.4224 39.412 12.2244C39.349 12.0754 39.2669 11.9353 39.1679 11.8076C38.903 11.4637 38.6174 11.1198 38.3474 10.7654C38.15 10.484 37.9527 10.2339 37.7657 9.96297C37.7552 9.94733 37.8331 9.87439 37.9058 9.77538L36.8672 9.29079L37.0023 9.22305C36.8984 9.15009 36.7582 9.03546 36.7011 8.99378C36.6439 8.95208 36.5504 8.89997 36.5349 8.87393C36.5192 8.84787 36.5869 8.76449 36.6284 8.72281C36.6786 8.67614 36.7344 8.63589 36.7945 8.60296C36.3376 8.2382 35.7092 8.13399 35.4961 7.50871C35.4526 7.42681 35.3806 7.36381 35.2937 7.33154C34.7899 7.15437 34.7692 7.12831 34.5095 6.66456C34.4575 6.57077 34.2914 6.50824 34.2135 6.45614C34.1355 6.40401 34.0421 6.37797 33.9642 6.32065C33.4137 5.92464 32.8633 5.51299 32.3076 5.12217C32.2349 5.05964 32.0635 5.12217 32.0168 5.05964C31.7103 4.68969 31.2585 4.37183 31.4091 3.85075C31.2386 3.81057 31.0648 3.78615 30.8898 3.7778C30.4067 3.80386 30.0485 3.57978 29.9706 3.18898C29.8927 2.79818 29.6953 2.76691 29.3733 2.86591C29.1903 2.87783 29.0069 2.8463 28.8382 2.77388C28.6694 2.70145 28.52 2.59018 28.4022 2.44905C28.3905 2.34519 28.3569 2.24504 28.3035 2.15528C28.25 2.0655 28.1782 1.9882 28.0926 1.92852C28.0072 1.86884 27.9099 1.82817 27.8074 1.80921C27.7051 1.79024 27.5998 1.79343 27.4987 1.81855C27.3798 1.85272 27.2539 1.85272 27.135 1.81855C26.6624 1.52154 26.2158 1.18805 25.7432 0.89625C25.5382 0.784144 25.3177 0.703355 25.089 0.656556C24.9019 0.609659 24.6994 0.61487 24.5072 0.573184C24.206 0.515866 23.962 0.265749 23.5933 0.401228ZM49.5596 87.9212C49.57 88.015 49.5024 88.114 49.4454 88.2911C49.3727 87.9107 49.326 87.6553 49.3 87.3949C49.1701 86.6653 49.0662 85.9253 48.9156 85.196C48.7805 84.5654 48.5884 83.9506 48.4275 83.3253C48.3444 82.9866 48.2509 82.6531 48.199 82.3091C48.1835 82.2258 48.3029 82.1268 48.3599 82.033C48.4483 82.0954 48.6248 82.1423 48.6248 82.2206C48.6819 82.5124 48.6819 82.8197 48.7338 83.1168C48.7702 83.3253 48.8844 83.5181 48.9261 83.7264C49.0956 84.567 49.2499 85.4126 49.4041 86.2582L49.409 86.285V86.5351C49.4609 86.9936 49.5181 87.4573 49.5596 87.9212ZM14.2194 26.8458C14.1986 26.4654 14.4167 26.2621 14.8062 26.0955C14.64 26.9865 14.1207 27.6691 13.7987 28.4455C13.7373 27.9635 13.8457 27.4751 14.1051 27.0647C14.1467 26.9917 14.2194 26.9188 14.2194 26.8458ZM5.14672 32.2545V32.1607L6.90204 30.5559C6.75948 31.1015 6.4442 31.5862 6.00361 31.9367C5.97202 31.9582 5.93618 31.9727 5.89853 31.9789C5.86089 31.9852 5.82233 31.9833 5.7855 31.9732C5.60892 31.9263 5.45313 31.8742 5.45313 32.1452C5.44793 32.1869 5.25578 32.2181 5.14672 32.2545ZM42.1384 30.2088C41.9864 30.2088 41.8379 30.1628 41.7125 30.0765L42.1177 29.5658C42.1574 29.5136 42.2067 29.4694 42.2631 29.4355C42.4656 29.347 42.6785 29.2689 42.8965 29.1803C42.9427 29.3458 42.9354 29.5216 42.8756 29.6826C42.816 29.8436 42.7069 29.9815 42.5643 30.0765C42.4389 30.1628 42.2904 30.2088 42.1384 30.2088ZM68.889 26.3195L69.0084 26.1528V26.1371C69.1331 26.1945 69.3252 26.2309 69.3616 26.3247C69.3979 26.4185 69.2732 26.5696 69.2213 26.6946L68.889 26.3195ZM38.6901 17.4769L38.5967 17.5498L38.0617 16.9766L38.3681 16.8151L38.6901 17.4769Z" fill="#202020"/>
</g>
<defs>
<clipPath id="clip0_270_1091">
<rect width="77" height="80" fill="white" transform="translate(0.5)"/>
</clipPath>
</defs>
</svg>
