<svg width="165" height="148" viewBox="0 0 165 148" fill="none" xmlns="http://www.w3.org/2000/svg">
<path d="M147.843 41.5782L147.815 32.8253L125.171 17.8165L121.902 10.0035L99.1356 0.666809L84.7808 6.67255L53.9696 6.78934L42.1724 1.95137L15.4475 13.1398L6.90806 33.9763L13.0013 48.5404L0.603516 78.797L16.8541 117.64L27.1504 113.33L35.0339 132.159L50.4784 125.697L56.2048 139.377L68.0299 134.423L99.1856 147.201L126.177 135.902L139.059 104.477L164.838 78.4967L164.744 52.7832L147.843 41.5782Z" fill="#E9E9E9"/>
<path d="M157.317 56.7926L140.421 45.5876L140.388 36.8292L119.178 22.7712L116.232 15.7201L99.1636 8.72449L86.2932 14.113L52.5189 14.2353L42.2061 10.009L21.1631 18.8175L14.9642 33.9429L21.0575 48.507L8.65967 78.7691L20.8462 107.897L31.1424 103.587L39.0259 122.422L54.4704 115.955L60.1968 129.634L74.7573 123.54L77.5871 130.296L99.158 139.144L120.462 130.224L128.457 110.722L118.055 115.076L114.697 107.057L131.876 89.7518L135.229 97.7706L157.389 75.4438L157.317 56.7926Z" fill="#272526"/>
<path d="M100.868 128.256L85.3723 121.887L79.968 108.923L84.9741 96.6577L94.7054 120.016L106.171 115.197L100.868 128.256ZM127.548 70.5772L136.904 76.8056L122.115 83.006L107.597 97.7174L107.535 80.1818L95.104 71.9073L80.4057 78.1077L65.2976 115.129L59.1243 100.367L70.6967 72.0203L55.9983 78.2203L43.9097 107.841L37.7364 93.0786L46.2838 72.1329L31.5855 78.3333L25.5411 93.1405L19.3677 78.3781L26.8768 59.9746L41.575 53.7746L36.5689 66.0396L65.9711 53.6843L60.965 65.9497L90.4233 53.5433L92.6233 48.1549L97.9885 50.3644L110.167 45.2464L85.7371 35.1906L80.7311 47.4615L66.0328 53.6619L71.0388 41.3965L41.6369 53.7519L46.6486 41.4585L56.4474 37.3382L41.1767 31.0535L36.0526 33.2067L40.5425 44.0175L31.9332 47.6361L25.7599 32.874L28.4762 26.2116L41.1035 20.9019L59.9494 28.6635L61.7622 24.2218L87.8475 24.126L98.6059 19.6168L107.198 23.1509L109.696 29.1427L128.704 41.7968L120.555 45.2237L146.68 62.6183L130.758 62.6746L127.548 70.5772Z" fill="#E9E9E9"/>
</svg>
