<svg width="83" height="94" viewBox="0 0 83 94" fill="none" xmlns="http://www.w3.org/2000/svg">
<path d="M0 69.9778C11.716 62.8756 21.9498 55.2163 30.7015 47C22.091 38.7837 11.8571 31.1244 0 24.0222L0.846939 22.9778C13.2687 29.8015 25.0553 34.7452 36.2066 37.8089C39.1709 26.8074 40.7236 14.2044 40.8648 0H42.3469C42.4881 14.7615 43.9702 27.3644 46.7934 37.8089C57.9447 34.6059 69.8019 29.7319 82.3648 23.1867L83 24.2311C71.0017 31.1941 60.6973 38.7837 52.0867 47C61.2619 55.6341 71.5663 63.2237 83 69.7689L82.3648 70.8133C70.3665 64.4074 58.5094 59.4637 46.7934 55.9822C43.9702 66.7052 42.4881 79.3778 42.3469 94H40.8648C40.7236 81.0489 39.1709 68.3763 36.2066 55.9822C24.4906 59.4637 12.7041 64.477 0.846939 71.0222L0 69.9778Z" fill="#272526"/>
</svg>
