<svg width="54" height="52" viewBox="0 0 54 52" fill="none" xmlns="http://www.w3.org/2000/svg">
<path fill-rule="evenodd" clip-rule="evenodd" d="M17.8113 19.9826C17.8378 19.9872 17.8648 19.9919 17.8884 19.9919C17.9025 19.8306 17.9403 19.6735 17.9774 19.519C18.0779 19.1012 18.1737 18.7027 17.784 18.2918C17.4116 17.8254 17.076 17.3307 16.7802 16.8123L17.3953 17.0618L17.1284 16.3771L14.3723 15.0601C13.2268 15.2708 12.1963 15.8891 11.4713 16.8007C10.1484 18.2454 10.131 19.8062 11.39 21.3031C11.6012 21.4934 11.7626 21.7324 11.86 21.9994C12.0225 23.0264 12.771 23.2933 13.56 23.4673L14.7205 23.125L14.7901 23.212C15.4145 22.5285 16.0295 21.8426 16.6426 21.1589C16.9923 20.7689 17.3413 20.3796 17.6912 19.9919C17.7103 19.9651 17.7598 19.9736 17.8113 19.9826ZM36.9426 15.2283C36.4858 14.958 35.999 14.7419 35.4921 14.5843L34.8248 14.8106L34.7378 14.6075L32.1211 17.3229C32.0048 18.1547 32.1135 19.0024 32.436 19.7779C32.7584 20.5534 33.2828 21.2284 33.9545 21.7325C35.0395 22.6492 36.2 22.5738 37.3604 21.8079C37.965 21.4821 38.4395 20.9586 38.7045 20.325C38.9696 19.6914 39.0092 18.986 38.8167 18.3267C38.6091 17.093 37.9389 15.9849 36.9426 15.2283Z" fill="#272526"/>
<path fill-rule="evenodd" clip-rule="evenodd" d="M13.0146 2.75374L13.6645 2.39981L14.059 2.92781C15.2775 2.59709 16.1478 3.37457 17.1051 3.9954H17.7376L17.6389 4.16946C18.869 4.97596 20.1397 5.73024 21.3291 6.59475C22.3967 7.37224 23.3947 8.25996 24.3984 9.13028C24.7422 9.476 25.0602 9.84639 25.35 10.2385C29.0807 4.21008 34.2098 0.717194 41.1086 0.0151367L41.2014 0.171797C41.6482 0.432892 42.0949 0.70559 42.5475 0.966685C43.0001 1.20284 43.4346 1.47242 43.8472 1.77318C44.3055 2.16192 44.7581 2.56227 45.2281 2.93361C47.2066 4.50018 49.2605 5.98553 50.9838 7.84801C51.0757 7.94084 51.1538 8.04635 51.2159 8.16133C51.7961 9.32175 52.3183 10.4822 52.8753 11.6426C53.6876 13.3194 53.5251 15.0485 53.2988 16.8297C53.0079 19.3879 52.2674 21.8746 51.1114 24.1752C49.8659 26.5695 48.5449 28.9233 47.1486 31.2364C45.4437 33.9456 43.5228 36.5127 41.4045 38.9126C39.0836 41.6744 36.7918 44.4884 34.3085 47.1284C33.473 48.0161 32.5678 48.8342 31.7265 49.722C31.2043 50.2732 30.7634 50.8824 30.1135 51.6889L24.4448 51.9848C21.5438 49.4551 18.6427 46.7629 15.614 44.239C13.1423 42.185 11.2334 39.6321 9.04019 37.3286C8.75069 36.9471 8.48522 36.5479 8.2453 36.1334C7.47361 35.06 6.68452 34.004 5.92445 32.9364C5.69236 32.6231 5.43126 32.3214 5.23399 31.9907C3.30936 28.9517 1.89067 25.6205 1.03325 22.127C0.732987 20.5397 0.58918 18.9267 0.603895 17.3113C0.516863 12.9365 0.0584941 13.9344 2.62884 9.64667C3.27764 8.51533 4.00875 7.43322 4.81624 6.40908C5.79355 5.17397 7.06402 4.20267 8.51219 3.58345C9.05759 3.36297 9.6204 3.1773 10.1484 2.922C10.5842 2.6843 11.0671 2.54594 11.5627 2.51685C12.0582 2.48776 12.5541 2.56866 13.0146 2.75374ZM12.6317 14.3174C13.2119 14.3 13.7921 14.7525 14.3723 15.0601L17.1284 16.3771C17.8478 16.6498 18.9386 18.0772 19.5188 19.8178C19.9772 21.1407 20.2499 22.5274 20.598 23.8387C18.4396 24.1404 16.2406 24.5001 14.0242 24.7554C10.5429 25.1442 8.28591 23.3455 6.48145 20.6591C5.79131 19.7358 5.45756 18.5944 5.54151 17.4447C6.08801 16.8168 6.78179 16.3344 7.56065 16.0406C8.42516 15.7447 9.22006 15.2631 10.073 14.9556C10.8885 14.6141 11.7513 14.3989 12.6317 14.3174ZM30.5777 19.6437C30.9546 18.787 31.4767 18.0018 32.1211 17.3229L34.7378 14.6075C35.0975 14.445 35.4515 14.1375 35.8112 14.1375C37.4395 14.0484 39.0721 14.0755 40.6966 14.2187C41.5843 14.3232 42.4024 14.944 43.2553 15.3328L44.1837 15.7563C44.0967 17.5318 39.7276 22.3998 37.9348 22.7189C37.6853 23.4673 36.989 23.5776 36.3276 23.7052C34.117 24.1172 32.7477 23.9895 29.9453 23.125C30.0672 21.9502 30.2786 20.7864 30.5777 19.6437Z" fill="#D2081E"/>
</svg>
