<svg width="96" height="96" viewBox="0 0 96 96" fill="none" xmlns="http://www.w3.org/2000/svg">
<path d="M50.3667 0.828636C45.2911 2.32767 41.9073 4.99262 40.8203 8.35888C40.5573 9.18291 40.4258 10.305 40.4959 11.3307C40.6362 13.7151 41.4427 15.6086 42.8979 16.9849C43.4677 17.5197 43.8622 17.8002 46.1151 19.2641C46.8252 19.7288 48.0261 20.693 47.693 20.5353C47.6404 20.509 47.6141 20.7544 47.6404 21.2278C47.6755 22.1745 47.4739 23.0775 47.0355 23.9629C46.6235 24.7869 46.2203 25.269 45.6154 25.6548C45.2209 25.909 45.0807 25.9528 44.5372 25.9616C44.204 25.9704 43.8709 25.9353 43.8183 25.8915C43.757 25.8389 43.7044 25.8301 43.7044 25.8739C43.7044 25.9178 43.4677 25.5233 43.1696 24.9973C41.767 22.4638 40.1365 20.6317 38.7339 20.0005C38.5322 19.9128 38.3832 19.7989 38.4095 19.7638C38.4358 19.72 38.4008 19.7112 38.3306 19.7288C38.2693 19.7551 38.0764 19.72 37.9098 19.6499C37.7433 19.5797 37.6732 19.5184 37.7433 19.5096C37.8309 19.5096 37.8222 19.4745 37.6995 19.3869C36.4546 18.519 34.3244 18.107 32.4572 18.37C31.2738 18.5365 30.5111 18.6856 29.4942 18.9398C29.0384 19.0538 28.8893 19.1326 28.8104 19.2992L28.714 19.5096L29.6169 19.5271L30.5111 19.5447L29.766 19.5797C29.0033 19.606 27.9776 19.457 28.0653 19.3255C28.0916 19.2817 28.0478 19.2729 27.9776 19.2992C27.776 19.3781 27.1185 18.9573 26.7065 18.4927C24.6377 16.1346 24.6552 11.7251 26.7767 6.50042C27.0572 5.79912 27.2588 5.22055 27.2237 5.22055C27.1273 5.22055 25.6896 6.77218 25.076 7.54361C23.4367 9.58616 22.2971 11.8829 21.9114 13.943C21.7185 14.9774 21.7799 16.6343 22.0516 17.5722C22.7705 20.1057 24.9182 22.5603 27.1448 23.4018C28.1179 23.77 28.9332 23.8927 30.9319 23.9804C33.5968 24.1031 34.4647 24.3135 35.3326 25.0587C35.6657 25.3479 36.4459 26.3385 36.1566 26.1106C36.0339 26.0054 36.0251 26.0492 36.0952 26.4613C36.2705 27.5132 35.8936 28.9158 35.2712 29.4944C34.7189 30.0116 33.8949 30.1519 32.8868 29.8889C32.3345 29.7486 30.9494 29.17 29.9325 28.6616C29.2049 28.2934 28.1705 27.8902 27.3114 27.6447C26.3559 27.3642 24.5588 27.3642 23.6296 27.6535C22.6653 27.9428 20.8594 28.8545 20.649 29.1525C20.6227 29.1876 20.5438 29.2489 20.4649 29.2928C20.2896 29.3892 19.4743 30.073 19.1325 30.3973C18.9922 30.5376 18.8607 30.6428 18.8344 30.6428C18.7993 30.6428 18.5714 30.8707 18.3084 31.1425C17.8 31.7035 17.7298 31.984 18.1068 32.0366C18.2295 32.0454 18.3435 32.098 18.3698 32.1418C18.3961 32.1857 18.5714 32.1155 18.7467 31.9928C18.9221 31.8788 19.0711 31.7912 19.0711 31.8175C19.0711 31.9227 18.2734 32.396 18.1769 32.3434C18.1243 32.3084 18.1068 32.3171 18.1331 32.3697C18.212 32.5012 17.274 32.9834 16.6078 33.1499C15.8276 33.3516 15.1263 33.2727 14.3198 32.8957C12.1019 31.8701 10.41 29.3103 9.4194 25.4882C9.13012 24.3749 8.85836 22.8496 8.76193 21.894C8.72687 21.5434 8.67427 21.2804 8.6392 21.3242C8.44635 21.5346 7.98173 23.7788 7.80641 25.3216C7.63985 26.7944 7.63985 27.7411 7.80641 29.0386C8.13953 31.6246 9.13888 33.6233 10.8045 35.0435C12.3999 36.4022 14.8808 37.2876 16.8357 37.1912C18.2208 37.1211 18.8695 36.9107 21.2188 35.736C22.376 35.1574 23.5331 34.6227 23.7961 34.5438C25.3653 34.1055 27.0747 34.6928 28.4948 36.1743C28.7841 36.4724 28.977 36.6915 28.9244 36.6652C28.863 36.6302 28.7929 36.8143 28.7315 37.1474C28.4685 38.5587 27.3465 39.0584 23.8487 39.3214C23.1737 39.374 22.3847 39.4529 22.0955 39.5055C19.8776 39.9 18.361 40.7503 17.0987 42.3107C16.897 42.5649 16.0906 43.7747 16.0906 43.8273C16.0906 43.8536 15.9503 44.1692 15.7837 44.5286C15.6172 44.8968 15.4769 45.2474 15.4769 45.3088C15.4769 45.3789 15.4506 45.4578 15.4155 45.4929C15.3805 45.5192 15.3454 45.5981 15.3366 45.6594C15.3279 45.7208 15.2139 46.0627 15.0912 46.4221C14.9597 46.7815 14.8194 47.2023 14.7756 47.3513C14.5564 48.0351 14.8107 48.4208 15.0824 47.8159C15.1701 47.6231 15.2578 47.4828 15.2753 47.5004C15.3366 47.5705 14.8019 48.6137 14.7318 48.5523C14.6967 48.5172 14.6879 48.5348 14.723 48.5961C14.8282 48.7715 14.0743 50.0776 13.5308 50.6738C12.8032 51.4627 12.2246 51.7082 10.9623 51.752C10.1908 51.7783 9.84895 51.752 9.26161 51.603C6.66679 50.9543 3.70378 48.6312 1.17033 45.2737C0.837207 44.8354 0.574219 44.5286 0.574219 44.5812C0.574219 44.8266 0.968702 46.1854 1.29305 47.0796C2.6343 50.7264 4.73821 53.4439 7.19277 54.6799C7.83271 55.0043 8.94602 55.3374 9.78759 55.4514C11.611 55.7056 14.1795 55.1709 15.6084 54.2329C16.8269 53.4351 17.5195 52.6374 18.8081 50.551C20.0354 48.5611 20.798 47.8159 21.964 47.4215C22.6477 47.1848 24.2081 47.2023 25.1461 47.4565C25.7335 47.6231 27.5832 48.4296 27.0747 48.2981C26.9169 48.263 26.8731 48.2893 26.8731 48.4384C26.8731 48.8854 26.1017 49.8585 25.2426 50.5072C25.0497 50.6475 24.8831 50.7789 24.8568 50.8052C24.8305 50.8315 24.6377 50.9718 24.4185 51.1121C24.0679 51.3488 23.1211 52.0062 22.8844 52.1816C22.8318 52.2254 22.639 52.3656 22.4461 52.5147C21.7536 53.0231 21.2714 53.5228 20.3948 54.6274C20.1581 54.9254 19.5795 56.2842 19.4656 56.8102C19.3078 57.5378 19.2026 59.2998 19.3341 58.9579C19.413 58.7563 19.413 58.7563 19.3691 59.0017C19.2201 59.7819 19.2376 61.8595 19.3867 63.3323C19.4831 64.1826 19.5532 65.4888 19.5532 66.2339C19.5445 67.4524 19.5269 67.6453 19.3341 68.1187C18.773 69.5651 16.8182 70.6346 14.5126 70.7836C12.0581 70.9414 9.15642 70.3453 6.12328 69.0742C5.6236 68.8726 5.22035 68.7323 5.22035 68.7761C5.22035 68.82 5.60607 69.2057 6.07068 69.6352C8.59537 71.9671 10.8483 73.2995 13.3204 73.9307C14.0831 74.1236 14.3899 74.1586 15.5207 74.1499C16.6954 74.1499 16.9233 74.1236 17.6247 73.9132C20.2282 73.1242 22.4812 71.1518 23.3929 68.8638C23.7611 67.9258 23.8925 67.093 23.9802 65.068C24.1117 62.254 24.3309 61.4212 25.2163 60.492C26.2594 59.3874 27.7935 58.7913 29.9676 58.6423L30.9056 58.5809V58.9754C30.9056 59.6241 30.6251 60.4131 29.6082 62.5521C28.6877 64.4982 28.4598 65.2959 28.3897 66.7248C28.3546 67.47 28.3721 67.8031 28.4423 67.8469C28.4948 67.882 28.5387 67.9784 28.5299 68.0573C28.5299 68.1888 28.5211 68.18 28.4598 68.0398C28.4247 67.9521 28.4072 68.5044 28.4072 69.2671C28.4247 70.3979 28.4598 70.7836 28.6088 71.3359C28.9945 72.6947 29.5994 73.7817 31.1773 75.9645C32.8955 78.3314 33.2111 78.9889 33.2199 80.2249C33.2286 80.9876 33.2111 81.0489 32.8605 81.759C32.6588 82.1623 32.3082 82.7233 32.089 82.9951C31.265 84.0295 29.6082 85.134 27.8812 85.8178C26.2331 86.4665 23.6646 87.0802 21.9289 87.2292C21.1136 87.3081 21.1662 87.3519 22.3584 87.6587C26.8819 88.7983 30.9845 88.3776 33.5793 86.5279C34.5699 85.8178 35.6218 84.5905 36.1566 83.521C36.7878 82.2762 37.2173 80.5931 37.2173 79.4096C37.2085 77.9895 36.8141 76.8061 35.5605 74.4304C34.7101 72.8262 34.491 72.195 34.4296 71.2658C34.3683 70.1612 34.7101 69.2408 35.6131 68.0485C36.2881 67.1719 37.7082 66.1112 39.1196 65.4362C39.7683 65.1294 40.1452 64.9891 39.8735 65.1644C39.7858 65.217 39.7858 65.3135 39.856 65.5677C39.9962 66.0849 40.0225 66.2164 40.1102 67.0229C40.1891 67.7067 40.4433 70.2927 40.4696 70.6697C40.4784 70.7661 40.5134 70.6784 40.5485 70.4856C40.5923 70.2226 40.6186 70.3365 40.6274 70.9677C40.6449 72.3528 40.8728 74.0359 41.1797 75.0002C41.2761 75.3158 41.5128 75.8681 41.7056 76.2363C42.6436 78.0596 44.0725 79.1379 47.693 80.7421C50.0249 81.7678 50.9979 82.4866 51.4713 83.5298C51.6817 83.9944 51.7255 84.2136 51.7518 85.0025C51.7956 86.0545 51.6642 86.7909 51.2434 87.8779C50.4018 90.0519 48.1927 92.638 45.3524 94.7682C44.879 95.1276 44.5459 95.4257 44.6073 95.4257C44.8352 95.4257 46.2641 94.9873 47.2547 94.6192C49.4726 93.7951 51.3749 92.6555 52.7512 91.323C54.4168 89.71 55.2233 88.1409 55.4687 86.037C55.6791 84.2574 55.197 81.9606 54.3028 80.4704C53.6103 79.322 52.5846 78.4278 50.3755 77.0515C48.3856 75.8155 47.6317 74.9564 47.3336 73.5713C46.9304 71.6865 47.7369 69.1969 49.5252 66.8213C50.244 65.8657 50.2002 65.8745 50.7174 66.4005C50.9541 66.6459 51.1557 66.795 51.1557 66.7336C51.1645 66.681 51.296 67.0667 51.4625 67.6102C52.1638 69.8807 53.0668 71.669 54.3817 73.4047C55.9246 75.421 57.4061 76.3327 59.7028 76.6658C60.6408 76.7973 61.2545 76.7798 63.8668 76.5168C66.0146 76.3064 66.3477 76.2976 67.0227 76.394C68.0571 76.5431 68.6708 76.8411 69.2581 77.4723C71.362 79.734 71.3445 84.2048 69.2318 89.4909C68.9513 90.201 68.7496 90.7795 68.7847 90.7795C68.8198 90.7795 69.2055 90.3938 69.635 89.9204C71.9406 87.4308 73.2643 85.2042 73.9218 82.7233C74.1146 82.0045 74.1497 81.6889 74.1497 80.5668C74.1584 79.1291 74.0796 78.6733 73.5711 77.4109C73.0539 76.096 71.7828 74.4479 70.5818 73.5362C69.898 73.019 68.8022 72.5018 67.9256 72.2827C67.1191 72.0898 65.6288 71.9408 64.2175 71.9145L63.2094 71.8969L63.9545 71.8443C64.3665 71.818 64.6207 71.783 64.5331 71.7742C64.4454 71.7654 63.8844 71.52 63.2882 71.2307C62.7009 70.9414 62.1749 70.7047 62.1311 70.7047C62.0171 70.7047 60.7373 70.0034 60.2288 69.6615C59.9921 69.495 59.6941 69.2583 59.5801 69.1356C59.4486 68.9865 59.3873 68.9602 59.4223 69.0654C59.5801 69.4774 59.5538 69.4774 59.3522 69.0567C58.7648 67.8118 58.5106 65.9622 58.6772 64.1738C58.7911 62.9641 59.0366 61.5001 59.1243 61.5001C59.1506 61.5001 59.5889 61.9384 60.0886 62.4644C61.7103 64.2001 63.2795 65.3748 65.3133 66.3742C67.1016 67.2508 67.873 67.47 69.3019 67.5226C70.3188 67.5664 70.6081 67.5401 71.2305 67.3911C72.3877 67.1018 73.8429 66.3216 75.7101 64.9716C78.2961 63.1219 79.0763 62.7274 80.2072 62.7274C81.8815 62.7274 83.7225 64.1563 85.0374 66.4531C86.0543 68.2414 87.0011 71.5288 87.229 74.071C87.3079 74.8862 87.3517 74.8336 87.6585 73.6414C88.8595 68.8463 88.3423 64.6297 86.2033 61.9735C85.1163 60.6235 83.626 59.6855 81.5747 59.0543C80.9085 58.8527 80.6893 58.8352 79.427 58.8352C78.077 58.8352 77.9893 58.8439 77.2091 59.1157C76.7533 59.2735 76.3413 59.3699 76.2974 59.3348C76.2448 59.3085 76.2273 59.3173 76.2536 59.3699C76.2799 59.4137 75.9643 59.6154 75.5611 59.817C75.149 60.0274 74.8335 60.1589 74.8598 60.115C74.886 60.0712 75.0614 59.966 75.2542 59.8871C76.0257 59.5365 75.3156 59.3436 73.8166 59.4926C72.3088 59.6504 70.0471 59.668 69.4334 59.5277C68.1886 59.2472 67.0139 58.7124 66.5405 58.2128C66.4967 58.1602 66.3565 58.0462 66.2425 57.9498L66.0321 57.7744L66.1373 57.9936C66.2425 58.204 66.2337 58.204 66.1022 58.0374C66.0321 57.941 65.9883 57.8183 66.0058 57.7569C66.0321 57.6956 66.0058 57.6254 65.9532 57.5904C65.8918 57.5553 65.8831 57.5641 65.9181 57.6254C65.9532 57.6868 65.962 57.7306 65.9357 57.7306C65.848 57.7306 65.0853 56.1527 64.7785 55.3374C64.498 54.5923 64.4892 54.5397 64.6207 54.3907C64.7347 54.2679 64.7435 54.2241 64.6558 54.2241C64.5944 54.2241 64.5594 54.2066 64.5769 54.1803C64.6032 54.1627 64.9188 54.2416 65.2694 54.3644C67.1805 55.0043 68.8461 55.2761 70.9675 55.2761C74.8335 55.2761 76.99 54.4257 78.6117 52.2605C79.2955 51.3488 79.6987 50.6036 80.6543 48.4822C81.5221 46.5448 81.9517 45.7997 82.539 45.1948C84.2835 43.4065 87.8777 44.0464 91.0949 46.7289C92.3923 47.8072 93.8125 49.3325 94.8907 50.7877C95.18 51.191 95.4255 51.4627 95.4255 51.3926C95.4255 51.1647 94.9959 49.7445 94.619 48.7452C93.9177 46.8429 92.8745 45.0107 91.7787 43.7046C89.2978 40.7503 85.7825 39.7597 82.1007 40.9519C80.4702 41.4867 79.5059 42.1968 78.1296 43.8799C77.9104 44.1516 77.9104 44.1429 78.1559 43.7922C78.3049 43.5731 78.3838 43.389 78.34 43.3714C78.1909 43.3188 77.4984 43.7046 76.7971 44.2393C74.9123 45.6594 73.6675 46.3169 72.3 46.5887C71.099 46.8341 69.5035 46.6237 68.4341 46.0715C67.8643 45.7822 67.6451 45.6244 67.2155 45.1685C67.049 44.9932 66.8211 44.8442 66.7246 44.8354C66.6194 44.8354 66.8386 44.7565 67.198 44.6601C68.8373 44.2218 71.0289 43.2312 72.414 42.3107C75.1052 40.5224 76.2536 38.9357 76.6218 36.5162C76.8059 35.3503 76.7883 34.7892 76.5166 32.0454C76.2887 29.7399 76.2887 29.5996 76.4202 28.8457C76.4903 28.4161 76.6393 27.8639 76.7533 27.6359C77.3318 26.4087 79.1202 25.4356 81.2241 25.2077C83.591 24.9447 86.7556 25.5846 90.0605 26.9872C90.455 27.1538 90.7793 27.259 90.7793 27.2239C90.7793 27.1275 89.254 25.7249 88.5001 25.1113C87.0098 23.919 84.9059 22.7356 83.4595 22.2797C82.2585 21.9028 81.8377 21.8327 80.4789 21.8327C78.9448 21.8327 78.375 21.9554 77.139 22.534C76.0958 23.0161 75.3945 23.507 74.5354 24.3223C73.0188 25.7687 72.3263 27.1801 72.0633 29.3015C71.9844 29.959 71.9493 30.1256 71.9318 29.8538C71.9143 29.4769 71.9143 29.4681 71.8441 29.7399C71.7565 30.1343 71.4058 30.8882 70.9237 31.7386C70.6695 32.1944 69.5912 33.5357 69.4948 33.5357C69.4597 33.5357 69.3195 33.6496 69.1704 33.7811C68.6883 34.237 67.4961 34.8594 66.8737 34.9821C66.0935 35.1399 65.4272 35.2013 64.9626 35.1574C64.2525 35.0785 63.7792 34.9558 63.7792 34.8331C63.7792 34.7805 63.6915 34.8068 63.5863 34.9032C63.4723 34.9909 63.5425 34.8944 63.7353 34.6753C65.6727 32.51 67.2857 29.3015 67.5487 27.1363C67.7065 25.795 67.3996 24.3135 66.6808 22.9022C66.2776 22.122 65.7428 21.3067 64.6295 19.7814C62.8499 17.3443 62.4379 16.1521 62.9113 14.7495C63.5337 12.891 65.3571 11.2868 68.1185 10.1735C69.6613 9.55109 72.3175 8.92869 74.0708 8.77089C74.9211 8.692 74.8422 8.6394 73.4045 8.28875C70.5467 7.60498 68.0308 7.51731 65.699 8.02576C62.6045 8.692 60.2989 10.7521 59.2645 13.7677C58.9402 14.7144 58.8613 15.1177 58.8087 16.1346C58.7298 17.8352 59.0278 18.9486 60.1587 21.0788C60.4743 21.6749 60.6934 22.1395 60.6496 22.1132C60.597 22.0781 60.5532 22.2271 60.5532 22.4551C60.5181 23.1914 60.1412 24.3574 59.6502 25.2077C59.4837 25.5057 58.6772 26.5226 58.6158 26.5226C58.5895 26.5226 58.4405 26.6366 58.2915 26.7769C57.9759 27.0749 56.9941 27.5921 56.4505 27.7499C56.2577 27.8113 55.8895 27.8463 55.644 27.8288C55.3898 27.8113 55.1794 27.8288 55.1619 27.8814C55.1444 27.9252 55.1444 27.8902 55.1619 27.7937C55.1882 27.6973 55.2233 26.7067 55.2496 25.6022C55.3285 22.2096 54.9603 20.5703 53.733 18.8434C53.0405 17.8703 52.006 17.0463 50.4281 16.2222C49.9635 15.9768 49.6041 15.7401 49.6391 15.6963C49.683 15.6612 49.6654 15.6524 49.6041 15.6787C49.4813 15.7489 49.2096 15.6612 49.271 15.5648C49.3323 15.4683 48.6398 15.1878 48.5171 15.2579C48.4557 15.3018 48.4294 15.293 48.4732 15.2316C48.5258 15.144 47.8157 14.6881 47.6141 14.6881C47.5615 14.6881 47.2722 14.5742 46.9742 14.4252C46.194 14.0657 46.2904 14.1797 47.1057 14.5917C47.4739 14.7846 47.7544 14.9424 47.7106 14.9511C47.5528 14.9599 46.2466 14.2323 46.2904 14.1622C46.3255 14.1096 46.2816 14.1008 46.194 14.1359C46.08 14.1797 46.0625 14.1622 46.1151 14.0745C46.1589 14.0044 46.1502 13.9781 46.0976 14.0131C45.8521 14.1709 44.8527 13.1628 44.5021 12.4089C44.204 11.7602 44.1339 10.3751 44.3618 9.367C44.9492 6.73711 47.3424 3.65138 50.7875 1.10916C51.1995 0.811103 51.4538 0.574414 51.3573 0.58318C51.2697 0.58318 50.8226 0.697142 50.3667 0.828636ZM48.2628 15.1265C48.333 15.1703 48.3593 15.2141 48.3067 15.2141C48.2628 15.2141 48.1576 15.1703 48.0875 15.1265C48.0174 15.0826 47.9998 15.0388 48.0437 15.0388C48.0963 15.0388 48.1927 15.0826 48.2628 15.1265ZM48.9641 15.4333C49.0869 15.5034 49.1482 15.556 49.0956 15.556C49.0518 15.556 48.9115 15.5034 48.7888 15.4333C48.6661 15.3631 48.6135 15.3105 48.6573 15.3105C48.7099 15.3105 48.8414 15.3631 48.9641 15.4333ZM43.8271 26.1369C43.8534 26.207 43.8446 26.2421 43.792 26.2158C43.7394 26.1895 43.7044 26.1281 43.7044 26.0755C43.7044 25.9528 43.7657 25.9791 43.8271 26.1369ZM19.6847 31.3792C19.6847 31.3967 19.6146 31.4668 19.5357 31.5282C19.3954 31.6421 19.3867 31.6334 19.5006 31.4931C19.6146 31.3529 19.6847 31.309 19.6847 31.3792ZM77.8052 44.4059C77.7526 44.5023 77.6913 44.5812 77.665 44.5812C77.6474 44.5812 77.665 44.5023 77.7176 44.4059C77.7702 44.3094 77.8315 44.2305 77.8578 44.2305C77.8754 44.2305 77.8578 44.3094 77.8052 44.4059ZM15.4155 47.2549C15.3892 47.3338 15.3454 47.3776 15.3279 47.3513C15.3016 47.325 15.3104 47.2724 15.3454 47.2198C15.4243 47.0796 15.4769 47.1059 15.4155 47.2549ZM64.4542 54.3293C64.4279 54.3907 64.4103 54.3468 64.4103 54.2241C64.4103 54.1014 64.4279 54.0575 64.4542 54.1101C64.4717 54.1715 64.4717 54.2767 64.4542 54.3293ZM74.3864 60.4043C74.3864 60.4219 74.2987 60.4832 74.1935 60.5358C74.0007 60.6323 74.0007 60.6235 74.1584 60.5008C74.3425 60.3517 74.3864 60.3342 74.3864 60.4043ZM40.6975 69.5826C40.6712 69.6528 40.6449 69.6265 40.6449 69.53C40.6362 69.4336 40.6625 69.381 40.6888 69.4161C40.7151 69.4424 40.7238 69.5213 40.6975 69.5826ZM63.0516 71.8093C63.0253 71.8356 62.9464 71.8443 62.885 71.818C62.8149 71.7917 62.8412 71.7654 62.9376 71.7654C63.034 71.7567 63.0866 71.783 63.0516 71.8093Z" fill="#272526"/>
<path d="M28.3458 19.3518C28.3984 19.4044 28.5036 19.422 28.5912 19.4044C28.7139 19.3781 28.6964 19.3606 28.5123 19.3168C28.3458 19.2905 28.2932 19.2992 28.3458 19.3518Z" fill="#272526"/>
<path d="M78.542 43.1961L78.3755 43.3977L78.5771 43.2311C78.7612 43.0734 78.8138 43.0032 78.7437 43.0032C78.7261 43.0032 78.6385 43.0909 78.542 43.1961Z" fill="#272526"/>
<path d="M19.1677 59.3611C19.1677 59.4576 19.194 59.4839 19.2203 59.4137C19.2466 59.3524 19.2379 59.2735 19.2116 59.2472C19.1853 59.2121 19.159 59.2647 19.1677 59.3611Z" fill="#272526"/>
<path d="M75.701 59.5714C75.6309 59.6152 75.6134 59.6591 75.6572 59.6591C75.7098 59.6591 75.8062 59.6152 75.8764 59.5714C75.9465 59.5276 75.9728 59.4837 75.9202 59.4837C75.8764 59.4837 75.7712 59.5276 75.701 59.5714Z" fill="#272526"/>
</svg>
